<svg height="512pt" viewBox="0 -28 512 512" width="512pt" xmlns="http://www.w3.org/2000/svg"><path d="m421.5 0-76.273438 60.613281-89.226562-59.480469-89.226562 59.484376-76.273438-60.617188-90.5 71.921875v384.238281h512v-384.238281zm60.5 86.398438v159.761718h-121v-159.761718l60.5-48.078126zm-151 .789062v158.972656h-150v-158.972656l75-50zm-240.5-48.867188 60.5 48.078126v159.761718h-121v-159.761718zm15 387.839844v-75h-30v75h-45.5v-150h121v150zm135.5 0v-45c0-8.269531 6.730469-15 15-15s15 6.730469 15 15v45zm60 0v-45c0-24.8125-20.1875-45-45-45s-45 20.1875-45 45v45h-30v-150h150v150zm135.5 0v-75h-30v75h-45.5v-150h121v150zm0 0"/><path d="m271 140.160156h30v60h-30zm0 0"/><path d="m211 140.160156h30v60h-30zm0 0"/><path d="m75.5 140.160156h30v60h-30zm0 0"/><path d="m406.5 140.160156h30v60h-30zm0 0"/></svg>