<?xml version="1.0" encoding="utf-8"?>
<!-- Generator: Adobe Illustrator 22.0.1, SVG Export Plug-In . SVG Version: 6.00 Build 0)  -->
<svg version="1.1" id="Layer_1" xmlns="http://www.w3.org/2000/svg" xmlns:xlink="http://www.w3.org/1999/xlink" x="0px" y="0px"
	 viewBox="0 0 1000 1000" style="enable-background:new 0 0 1000 1000;" xml:space="preserve">
<style type="text/css">
	.st0{fill:#013D42;}
	.st1{fill:#FFFFFF;}
</style>
<rect class="st0" width="1000" height="1000"/>
<g>
	<path class="st1" d="M213.5,717.8c-5.2,0-17.7,0-17.7,0s34.1-35,51-52.3c-1-1.8-2-3.6-2.9-5.3c-20.1,0-40.1,0-60.3,0
		c0,2.7-0.1,5.3,0,8c16.2,0,48.4,0,48.4,0l-49.7,51.3l3.1,6.2c0,0,41.7,0,62,0c0.5,0,1,0,1.6-0.1c0-2.7,0-5.2,0-7.9
		c-0.7,0-1.3,0-1.9,0C235.8,717.8,224.7,717.8,213.5,717.8z"/>
	<path class="st1" d="M415.7,783.1c0-0.4-0.1-0.8-0.1-1.2c-6.4,0-12.7,0-19.1,0c0,1.8,0,3.6,0,5.5c4.4,0,8.6,0,12.9,0
		c0.7,2.1,0.2,3.7-1.5,4.8c-1,0.7-2,1.4-3.1,1.8c-4.8,1.6-9.7,1.6-14.5-0.1c-3.8-1.4-5.9-4.2-6.6-8.1c-0.2-1-0.1-2-0.1-3
		c0.2-4.7,2.7-8.1,7.2-9.7c3.2-1.1,6.6-1.2,9.9-0.8c3.1,0.4,5.8,1.7,8,4.1c0.2,0.2,0.4,0.3,0.6,0.5c1.7-1.2,3.3-2.4,5.1-3.7
		c-0.9-0.8-1.6-1.5-2.4-2.1c-3.1-2.4-6.6-3.8-10.5-4.3c-5.1-0.6-10.1-0.4-14.8,1.6c-5,2.2-8.2,5.9-9.3,11.3
		c-0.5,2.3-0.5,4.6-0.2,6.9c0.7,4.9,3.1,8.7,7.4,11.3c2,1.2,4.1,1.9,6.3,2.4c0.9,0.2,1.8,0.4,2.7,0.6c2.5,0.3,6,0.2,8.3-0.3
		c1.7-0.4,3.5-0.7,5.2-1.3c3.1-1.1,5.8-2.9,7.9-5.5c0.5-0.7,0.8-1.4,0.8-2.3C415.6,788.6,415.7,785.8,415.7,783.1z"/>
	<path class="st1" d="M533.6,227.5c0,0,21.6,0,32.3,0c0-1.9,0-3.7,0-5.6c-1.9,0-3.6,0-5.3,0c-1.7,0-3.5,0-5.2,0c-1.7,0-3.4,0-5,0
		c-1.7,0-3.5,0-5.2,0c-1.7,0-3.4,0.1-5.2-0.1c0-1.5,0-2.7,0-4c0-1.3,0-2.6,0-4c7.3,0,14.3,0,21.4,0c0-1.9,0-3.7,0-5.7
		c-3.6,0-7.2,0-10.7,0c-3.5,0-7.1,0-10.6,0c0-2.6,0-4.9,0-7.4c8.5,0,16.9,0,25.5,0c0-2.1,0-4,0-5.9c-10.6,0-31.9,0-31.9,0v1.4v30
		L533.6,227.5z"/>
	<path class="st1" d="M508.5,767.7c-5.7-1.9-11.6-1.9-17.3-0.1c-6.7,2.1-10.7,6.7-11.5,13.7c-0.9,7.6,2.2,15,11,18.1
		c0.9,0.3,1.9,0.5,2.9,0.8c0.9,0.2,1.7,0.4,2.6,0.6c2.4,0.3,4.5,0.3,6.9,0c1-0.2,2-0.4,3.1-0.6c7.7-1.7,12.6-6.7,13.5-14.2
		C520.6,777.7,517,770.5,508.5,767.7z M513,786.2c-0.7,3.6-2.8,6.1-6.1,7.5c-4.8,1.9-9.7,2-14.4,0c-4-1.6-6.1-4.8-6.4-9.1
		c-0.1-1.2,0-2.4,0.2-3.6c0.7-3.6,2.8-6.1,6.2-7.6c2.3-1,4.7-1.4,7.1-1.3c2.5,0,4.9,0.3,7.2,1.3c4.1,1.8,6.3,5,6.5,9.4
		C513.2,783.9,513.2,785.1,513,786.2z"/>
	<path class="st1" d="M569.8,767.4c-2.1,0-4.1,0-6.2,0c0,1.7,0,3.4,0,5c0,4.1,0.1,8.3,0,12.4c-0.1,5.2-3,8.7-7.9,9.8
		c-2.5,0.5-5,0.5-7.5-0.2c-3.9-1.1-6.2-3.7-6.9-7.7c-0.2-1.1-0.3-2.2-0.3-3.3c0-4.8,0-9.5,0-14.3c0-0.6,0-1.1,0-1.8
		c-2.2,0-4.2,0-6.2,0c-0.1,0.2-0.1,0.4-0.1,0.5c0,6-0.2,12,0.1,17.9c0.3,7.3,4.8,12.6,12,14.3c0.8,0.2,1.6,0.4,2.4,0.6
		c1.1,0.1,2.2,0.3,3.2,0.3c1,0,2.1-0.1,3.1-0.3c0.9-0.2,1.8-0.4,2.7-0.7c5.8-1.5,9.7-5,11.2-10.9c0.4-1.5,0.5-3,0.5-4.5
		c0.1-5.3,0-10.6,0-15.9C569.9,768.3,569.8,767.9,569.8,767.4z"/>
	<path class="st1" d="M445.8,200.8c0,9,0,17.8,0,26.7c2.2,0,4.2,0,6.4,0c0-8.9,0-17.8,0-26.8c4.9,0,14.4,0,14.4,0l0-5.9h-34.9l0.1,6
		C431.8,200.8,441,200.8,445.8,200.8z"/>
	<path class="st1" d="M480.2,227.5c0,0,4.2,0,6.5,0c0-4.5,0-13.3,0-13.3l22.9,0.1v13.2h6.4l0-31.2l0-1.5h-6.5l0,1.7l0,9.7
		c0,0.3,0,0.9,0,1.3v0.5h-22.8l0-1.6l0-9.9l0-1.7h-6.5l0,1.7l0,29.4V227.5z"/>
	<path class="st1" d="M581.4,314.1c-3.4-1.4-6.8-2.9-10.2-4.2c-6.5-2.5-13.2-4.1-20.1-4.6c-7.9-0.6-15.7,0.3-23.5,1.8
		c-7.2,1.4-14.3,3.4-21.3,5.6c-0.6,0.2-1.2,0.3-2.1,0.6c1-1.9,1.8-3.4,2.5-4.9c0.4-0.9,1-1.2,1.9-1.2c5-0.3,10-1.4,14.9-2.5
		c1-0.2,1.5-0.9,1.3-1.8c-0.1-0.8-0.8-1.3-1.7-1.2c-0.6,0-1.1,0.2-1.7,0.3c-1.6,0.3-3.2,0.7-4.8,1c-2.2,0.4-4.5,0.7-6.8,1.1
		c-0.1-0.1-0.1-0.2-0.2-0.3c1-1.3,1.9-2.7,2.9-4c0.2-0.2,0.6-0.3,1-0.3c5.7-0.7,11.5-1.3,17.2-1.9c1.4-0.2,2.8-0.4,4.2-0.6
		c0.7-0.1,1.1-0.5,1.3-1.2c0.1-0.6,0-1.2-0.6-1.5c-0.5-0.2-1.1-0.3-1.6-0.3c-4.2,0.5-8.4,1.1-12.6,1.7c-1.9,0.2-3.8,0.4-5.7,0.6
		c0.6-1.1,1.3-1.9,1.9-2.8c1-1.5,2.3-2.4,4.2-2.1c0.7,0.1,1.5,0,2.2-0.1c5.8-0.6,11.7-1.3,17.5-1.9c0.9-0.1,1.8-0.2,2.6-0.4
		c0.8-0.2,1.2-1,1.1-1.7c-0.2-0.7-0.6-1.2-1.4-1.2c-0.4,0-0.8,0-1.3,0.1c-4.7,0.6-9.4,1.2-14,1.7c-1.9,0.2-3.9,0.3-5.9,0.5
		c-0.1-0.1-0.1-0.2-0.2-0.4c1.5-1.5,3-3,4.6-4.5c0.2-0.2,0.8-0.3,1.2-0.2c7,0.3,14-0.4,21-1c1.9-0.2,3.7-0.5,5.6-0.8
		c1.2-0.2,1.7-0.8,1.5-1.8c-0.1-0.9-0.8-1.4-2-1.2c-2.4,0.3-4.9,0.7-7.3,0.9c-4.8,0.4-9.6,0.6-14.4,0.9c-0.4,0-0.8-0.1-1.6-0.2
		c1.6-1.1,2.8-2,4-2.9c0.8-0.6,1.7-0.9,2.8-0.8c5.7,0.1,11.3,0,16.9-0.9c2.5-0.4,5-1.1,7.5-1.8c1.3-0.4,1.8-1.2,1.4-2.2
		c-0.3-0.9-1.2-1.1-2.4-0.7c-0.6,0.2-1.3,0.5-1.9,0.6c-5.5,1.4-11,1.8-16.7,1.9c-0.1,0-0.2-0.1-0.4-0.2c0.4-0.2,0.7-0.4,1-0.6
		c6-2.8,12.1-5.1,18.8-5.2c1.1,0,1.7-0.7,1.7-1.6c0-0.9-0.6-1.5-1.7-1.4c-1.8,0.1-3.7,0.2-5.5,0.5c-6.6,1.2-12.7,3.7-18.4,7
		c-7.8,4.5-14.5,10.4-20.3,17.2c-4.8,5.5-9.3,11.2-13.1,17.5c-0.9,1.5-1.7,3.1-2.6,4.7c-0.1-0.1-0.2-0.1-0.3-0.2
		c-0.4-0.8-0.8-1.6-1.2-2.4c-3.1-5.6-6.8-10.7-10.9-15.6c-4.7-5.7-9.6-11.2-15.6-15.7c-7.9-6.1-16.6-10.5-26.5-12.4
		c-1.8-0.4-3.7-0.5-5.6-0.5c-1.2,0-1.9,1-1.6,1.9c0.3,0.8,0.9,1.1,1.7,1.1c1.1,0,2.2,0,3.3,0.2c5.4,0.8,10.6,2.6,15.5,5
		c0.3,0.2,0.6,0.4,1.1,0.7c-0.5,0.1-0.7,0.1-0.9,0.1c-6.2-0.2-12.5-0.5-18.5-2.6c-0.1,0-0.2-0.1-0.3-0.1c-0.9-0.2-1.7,0.2-2,1
		c-0.3,0.8,0.1,1.6,1,1.9c1.5,0.5,3,1,4.5,1.4c5.9,1.3,11.8,1.8,17.8,1.5c3.2-0.2,5.7,0.7,8,2.8c0.3,0.3,0.9,0.5,1,1.1
		c-0.4,0-0.7,0.1-1,0c-5.9-0.4-11.8-0.8-17.7-1.2c-1.5-0.1-3-0.4-4.5-0.6c-1-0.1-1.7,0.5-1.8,1.3c-0.1,0.8,0.4,1.4,1.3,1.7
		c0.3,0.1,0.6,0.2,0.9,0.2c8.1,1.1,16.3,1.9,24.5,1.6c1.9-0.1,3.3,0.5,4.5,1.9c0.9,1,1.9,1.9,2.9,3.1c-0.9,0-1.5,0.1-2.1,0
		c-5.1-0.6-10.2-1.1-15.3-1.7c-1.3-0.1-2.5-0.4-3.8-0.4c-1-0.1-1.6,0.4-1.7,1.3c-0.1,0.9,0.3,1.4,1.3,1.7c0.2,0.1,0.5,0.1,0.8,0.1
		c7.6,1,15.3,2.1,23,2.3c0.3,0,0.8,0.1,1,0.3c1.2,1.4,2.4,2.8,3.8,4.4c-0.6,0-0.9,0-1.2,0c-5.7-0.7-11.3-1.4-17-2.1
		c-0.4-0.1-0.8-0.2-1.2-0.1c-0.7,0.1-1.3,0.6-1.4,1.3c-0.1,0.7,0.3,1.4,0.9,1.6c0.3,0.1,0.6,0.2,0.9,0.2c6.9,0.8,13.7,1.6,20.6,2.5
		c0.4,0,1,0,1.2,0.3c1.1,1.3,2.1,2.7,3.1,4.3c-0.5,0-0.7,0-0.9,0c-3.6-0.6-7.1-1.2-10.7-1.9c-0.7-0.1-1.3-0.3-2-0.3
		c-0.9-0.1-1.6,0.5-1.7,1.3c-0.1,0.8,0.3,1.5,1.2,1.8c0.2,0.1,0.4,0.1,0.6,0.1c4.9,1,9.8,2.1,14.9,2.4c0.3,0,0.8,0.2,0.9,0.4
		c1.1,1.7,2,3.5,2.8,5.4c-0.3,0.1-0.4,0.1-0.5,0.1c-0.5-0.1-1-0.3-1.5-0.4c-10.5-3.3-21.1-6.2-32.1-7.2c-6.9-0.6-13.7-0.4-20.5,0.9
		c-7.8,1.5-15,4.6-22.2,7.7c-1.1,0.5-1.4,1.2-1.1,2.1c0.4,0.9,1.2,1.2,2.2,0.8c1.5-0.6,2.9-1.2,4.4-1.8c5-2.2,10.1-4.1,15.4-5.3
		c0.3-0.1,0.6-0.1,1.1-0.1c-0.3,0.3-0.4,0.4-0.6,0.5c-4.6,2.5-9.2,4.9-13.9,7.4c-1.2,0.6-1.6,1.3-1.3,2.2c0.3,0.9,1.3,1.2,2.5,0.7
		c0.8-0.3,1.6-0.7,2.4-1.1c5.3-2.9,10.7-5.8,16-8.8c4.5-2.5,4.5-2.5,9.7-2.4c0.5,0,1,0,1.6,0.1c0.3,0,0.6,0.1,1,0.2
		c-0.1,0.2-0.1,0.2-0.1,0.2c-6.2,3.2-12.4,6.4-18.9,8.9c-0.1,0.1-0.3,0.1-0.4,0.2c-0.8,0.4-1.2,1-1,1.8c0.2,0.8,0.9,1.3,1.8,1.2
		c0.4,0,0.8-0.2,1.2-0.3c1.2-0.5,2.4-0.9,3.5-1.4c6.4-3.1,12.7-6.2,19.1-9.4c0.6-0.3,1.2-0.6,1.7-0.6c2.3,0.3,4.6,0.7,6.9,1
		c-0.3,0.5-0.7,0.8-1.1,1c-4.6,2.1-9.3,4.2-13.9,6.3c-0.4,0.2-0.9,0.3-1.3,0.6c-0.7,0.4-1,1.2-0.7,1.9c0.3,0.7,1,1.1,1.8,0.9
		c0.4-0.1,0.8-0.2,1.2-0.4c6.2-2.9,12.3-5.8,18.5-8.6c0.3-0.2,0.7-0.4,1-0.3c1.1,0.2,2.2,0.5,3.6,0.9c-0.5,0.3-0.8,0.6-1.1,0.7
		c-3.3,1.6-6.6,3.2-9.9,4.8c-1.2,0.6-1.6,1.6-0.9,2.5c0.5,0.6,1.2,0.7,1.9,0.5c0.9-0.3,1.9-0.7,2.8-1.1c3.6-1.8,7.2-3.7,10.7-5.6
		c0.4-0.2,1-0.5,1.4-0.4c2.3,0.6,4.6,1.4,7.2,2.2c-0.8,0.4-1.4,0.6-1.9,0.8c-6.7,2.9-13,6.4-18.8,10.8c-7.2,5.4-13.1,12-17.5,19.9
		c-4.5,8.3-8.1,16.9-10.7,25.9c-0.2,0.7-0.4,1.3-0.5,2c-0.1,0.8,0.3,1.5,1,1.7c0.8,0.3,1.6-0.1,1.9-0.9c0.1-0.3,0.2-0.7,0.3-1.1
		c2.1-7.7,5-15,8.6-22.1c0.2-0.3,0.4-0.7,0.6-1.1c0.1,0.2,0.2,0.2,0.2,0.3c-0.6,5-1.4,10-3.3,14.7c-0.1,0.3-0.3,0.7-0.3,1
		c-0.1,0.7,0.3,1.2,0.9,1.5c0.7,0.3,1.2,0.1,1.7-0.4c0.2-0.3,0.4-0.6,0.6-0.9c0.5-1.2,1-2.4,1.3-3.7c1.6-5.8,2.5-11.7,2.8-17.7
		c0.1-1.3,0.4-2.4,1.2-3.3c1.4-1.7,2.7-3.4,4-5c0.2-0.3,0.6-0.5,0.9-0.8c0.1,0.2,0.1,0.3,0.1,0.4c-0.8,5.8-1.5,11.5-2.3,17.3
		c-0.2,1.1,0.2,1.9,1.1,2.1c0.9,0.2,1.6-0.2,2-1.4c0.2-0.5,0.3-1,0.3-1.5c0.7-5.4,1.4-10.8,2.1-16.2c0.2-1.6-0.1-3.4,0.8-4.7
		c1-1.3,2.5-2.2,3.8-3.2c0.3-0.2,0.6-0.4,1.2-0.7c-0.3,2.2-0.5,4-0.7,5.9c-0.6,4-1.2,8.1-2.5,12c0,0.1-0.1,0.2-0.1,0.3
		c-0.2,0.8,0.1,1.5,0.8,1.8c0.7,0.3,1.7,0.1,2-0.7c0.5-1,0.8-2.2,1.1-3.3c1.3-5.8,2.3-11.6,2.6-17.6c0-0.4,0.1-0.9,0.4-1.1
		c1.6-1.1,3.3-2.1,5.2-3.2c0,0.7,0.1,1.2,0,1.6c-0.9,4.7-1.7,9.5-2.6,14.2c-0.1,0.4-0.2,0.7-0.2,1.1c-0.1,0.9,0.4,1.6,1.2,1.8
		c0.7,0.1,1.4-0.3,1.7-1c0.2-0.6,0.4-1.3,0.6-2c1-5.5,1.9-10.9,2.8-16.4c0.1-0.8,0.4-1.2,1.1-1.5c2.4-1,4.7-2.1,7.1-3.1
		c0.2-0.1,0.6-0.1,0.9-0.2c-0.1,1.7-0.2,3.2-0.3,4.7c-0.5,6.5-1,13.1-1.5,19.6c-0.5,6.1-0.9,12.2-1.4,18.4c-0.5,6.5-1,13.1-1.5,19.6
		c-0.5,6.1-0.9,12.2-1.4,18.4c-0.5,6.5-1,13.1-1.5,19.6c-0.5,6.1-0.9,12.2-1.4,18.4c-0.5,6.6-1,13.2-1.5,19.8
		c-0.4,4.8-0.7,9.5-1.1,14.3c-0.5,6.2-1,12.3-1.4,18.5c-0.1,2,0.3,2.4,2.3,2.4c8.1,0,16.3,0,24.4,0c2,0,2.4-0.4,2.3-2.4
		c-0.3-4.3-0.6-8.7-1-13c-0.7-9.8-1.5-19.6-2.2-29.3c-0.8-11.3-1.7-22.6-2.5-33.9c-0.7-9.8-1.5-19.7-2.2-29.5
		c-0.7-9.8-1.5-19.7-2.2-29.5c-0.8-11.3-1.7-22.6-2.5-33.9c0-0.7,0-1.3,0-2.1c0.5,0.2,0.9,0.3,1.3,0.4c2.1,0.9,4.2,1.9,6.3,2.8
		c0.9,0.4,1.2,1,1.4,1.9c0.3,2.4,0.6,4.9,1.1,7.3c0.6,3.5,1.4,7,2.2,10.5c0.3,1.1,1,1.6,1.9,1.4c0.9-0.2,1.3-1.1,1.1-2.2
		c-0.9-4.4-1.7-8.7-2.5-13.1c-0.2-1-0.2-2-0.4-3.4c1.8,1.1,3.3,2,4.8,2.9c0.7,0.4,0.9,0.9,0.9,1.7c0.4,6.2,1.3,12.3,2.8,18.3
		c0.2,0.8,0.5,1.5,0.8,2.2c0.4,0.9,1.2,1.2,1.9,0.9c0.8-0.3,1.2-1.1,0.9-2.1c-0.3-0.9-0.7-1.8-0.8-2.7c-0.7-3.4-1.3-6.8-1.9-10.2
		c-0.3-1.6-0.4-3.3-0.6-4.9c0.1-0.1,0.2-0.1,0.3-0.2c1.3,1,2.6,2.1,3.9,3.1c0.9,0.6,1.2,1.4,1.3,2.5c0.7,6.2,1.5,12.4,2.2,18.6
		c0.1,0.8,0.3,1.7,0.6,2.4c0.3,0.9,1,1.2,1.8,1c0.8-0.2,1.2-0.8,1.1-1.8c-0.1-0.6-0.3-1.2-0.4-1.8c-0.5-3.8-1-7.7-1.5-11.5
		c-0.2-1.5-0.3-3-0.5-4.7c0.4,0.4,0.6,0.5,0.7,0.6c1.6,2.1,3.3,4.1,4.8,6.2c0.3,0.5,0.5,1.2,0.5,1.8c0.4,4.8,0.9,9.5,1.9,14.2
		c0.6,2.8,1.3,5.6,2.5,8.2c0.5,1,1.3,1.4,2.1,1c0.9-0.4,1.2-1.2,0.7-2.2c-1.2-2.6-1.9-5.3-2.4-8.1c-0.4-2.3-0.8-4.6-1.2-6.9
		c0.5,0.2,0.7,0.6,0.9,0.9c3.6,7.1,6.4,14.5,8.6,22.1c0.1,0.4,0.2,0.8,0.4,1.2c0.3,0.7,1,0.9,1.7,0.8c0.7-0.1,1.2-0.7,1.1-1.5
		c0-0.5-0.1-0.9-0.3-1.4c-2.6-9.4-6.3-18.4-11.1-27c-4.2-7.5-9.7-13.8-16.5-19c-6.1-4.7-12.7-8.5-19.8-11.6c-0.5-0.2-1-0.5-1.8-0.8
		c2.4-0.7,4.4-1.3,6.4-2c0.9-0.3,1.6-0.2,2.5,0.3c3.8,2,7.6,4,11.5,5.9c0.7,0.4,1.6,0.6,2.4,0.7c0.8,0.1,1.5-0.4,1.6-1.2
		c0.1-0.8-0.1-1.3-0.8-1.7c-0.3-0.1-0.6-0.2-0.9-0.3c-3.5-1.4-6.9-3.3-10.6-5.3c1.2-0.3,2.1-0.5,3-0.8c0.6-0.2,1.2-0.1,1.8,0.2
		c6.2,2.9,12.4,5.8,18.7,8.7c0.3,0.2,0.7,0.3,1,0.3c0.8,0.1,1.5-0.3,1.7-1c0.2-0.7,0-1.4-0.7-1.8c-0.3-0.2-0.8-0.4-1.1-0.5
		c-4.6-2.1-9.3-4.2-13.9-6.3c-0.5-0.2-0.9-0.5-1.3-0.7c0-0.1,0-0.2,0.1-0.3c1.9-0.3,3.8-0.6,5.7-1c1.1-0.2,2,0,3,0.5
		c6.8,3.4,13.5,6.7,20.3,9.9c0.9,0.5,1.9,0.8,2.9,1.1c1,0.3,1.8-0.1,2.1-0.9c0.3-0.9-0.2-1.6-1.2-2c-1.9-0.8-3.8-1.5-5.7-2.3
		c-4.2-2-8.4-4.1-12.6-6.1c-0.3-0.2-0.7-0.4-1.3-0.8c2.6-0.3,4.9-0.3,7.2-0.2c1,0,1.8,0.3,2.7,0.8c6.2,3.4,12.4,6.9,18.6,10.2
		c0.9,0.5,1.8,0.9,2.7,1.3c1.1,0.4,1.9,0.1,2.2-0.8c0.4-0.9,0-1.6-1.1-2.1c-4.5-2.4-9-4.7-13.5-7.1c-0.4-0.2-0.7-0.4-1-0.7
		c0.4-0.2,0.6-0.1,0.9-0.1c4.9,1.1,9.6,2.8,14.1,4.7c1.5,0.6,3,1.3,4.5,1.9c0.4,0.2,0.9,0.4,1.3,0.5c1,0.3,1.8,0,2.1-0.7
		C582.8,315.4,582.4,314.5,581.4,314.1z M501.8,338.6c0.1,0,0.2,0,0.3,0c0.4,5.1,0.7,10.2,1.1,15.4c-0.9,0-1.7,0-2.6,0
		C501.1,348.7,501.4,343.7,501.8,338.6z M513.3,488.4c-7.6,0-15.1,0-22.6,0c0.2-3,0.4-6,0.7-9c7.1,0,14.1,0,21.3,0
		C512.8,482.4,513.1,485.3,513.3,488.4z M512.4,476.1c-7,0-13.8,0-20.8,0c0.3-3.5,0.5-6.8,0.8-10.3c6.5,0,12.8,0,19.3,0
		C511.9,469.2,512.1,472.6,512.4,476.1z M511.4,462.3c-1.2,0.3-16.4,0.4-18.8,0.1c0.2-3.4,0.5-6.7,0.7-10.2c5.8,0,11.4,0,17.3,0
		C510.9,455.7,511.1,459,511.4,462.3z M510.3,448.7c-1.2,0.4-14,0.5-16.5,0.2c-0.3-1.2,0.1-8,0.6-10.3c4.9,0,9.9,0,15,0
		C509.8,442,510.1,445.4,510.3,448.7z M508.6,425c0.3,3.4,0.5,6.8,0.8,10.1c-1.2,0.4-12.8,0.5-14.7,0.1c0.2-3.3,0.5-6.7,0.8-10.1
		C499.8,425,504,425,508.6,425z M508.3,421.8c-4.3,0.2-8.4,0-12.7,0.1c0.3-3.6,0.5-6.9,0.8-10.4c3.7,0,7.3,0,11.2,0
		C507.8,414.8,508.1,418.2,508.3,421.8z M506.5,397.9c0.3,3.3,0.5,6.7,0.8,10c-1.2,0.3-8.5,0.4-10.7,0.1c0.3-3.4,0.5-6.7,0.8-10.2
		C500.4,397.9,503.4,397.9,506.5,397.9z M506.3,394.6c-3,0-5.7,0-8.6,0c0.3-3.5,0.5-6.8,0.8-10.3c2.4,0,4.7,0,7.1,0
		C505.8,387.8,506,391.1,506.3,394.6z M505.3,381.1c-2.3,0-4.4,0-6.6,0c0.3-3.5,0.5-6.8,0.8-10.3c1.7,0,3.3,0,5.1,0
		C504.8,374.2,505,377.5,505.3,381.1z M504.3,367.5c-1.5,0-2.9,0-4.5,0c0-3.4,0.5-6.7,0.7-10.3c1.1,0,2,0,3.1,0
		C503.8,360.6,504,364,504.3,367.5z"/>
	<path class="st1" d="M742.2,354.6c0.4-0.9,0-1.6-1-2.1c-4.5-2.4-9.1-4.8-13.6-7.2c-0.3-0.2-0.7-0.4-1-0.7c0.7-0.1,1.3,0.1,1.9,0.2
		c5.5,1.3,10.7,3.4,15.8,5.6c1.2,0.5,2.3,1,3.5,1.4c0.9,0.3,1.6-0.2,1.9-1c0.2-0.7,0-1.4-0.8-1.8c-0.1-0.1-0.3-0.1-0.4-0.2
		c-3-1.2-5.9-2.5-8.9-3.7c-8.4-3.3-17.1-5.3-26.2-5.2c-7.6,0-15.1,1-22.4,2.8c-5.9,1.4-11.7,3.2-17.6,4.9c-0.5,0.1-1,0.6-1.8,0.1
		c0.9-1.7,1.8-3.4,2.7-5c0.3-0.6,0.8-0.6,1.3-0.7c5.1-0.2,9.9-1.4,14.9-2.4c0.3,0,0.5-0.1,0.7-0.2c0.6-0.3,0.9-0.8,0.9-1.5
		c-0.1-0.7-0.6-1.3-1.3-1.3c-0.6,0-1.1,0.1-1.7,0.2c-2.7,0.5-5.4,1.1-8.2,1.6c-1.3,0.2-2.5,0.3-3.8,0.5c-0.1-0.1-0.1-0.2-0.2-0.3
		c0.9-1.3,1.8-2.6,2.8-3.9c0.2-0.3,0.7-0.4,1.1-0.5c2.6-0.3,5.1-0.4,7.7-0.7c4.3-0.5,8.6-1.1,12.9-1.7c1.5-0.2,2.2-0.9,2.1-1.8
		c-0.1-1-0.9-1.4-2.4-1.2c-4.6,0.6-9.3,1.2-13.9,1.8c-1.4,0.2-2.8,0.3-4.2,0.4c1-1.7,2.1-3,3.3-4.4c0.2-0.3,0.7-0.4,1.1-0.4
		c5.6-0.5,11.2-1,16.8-1.5c2.2-0.2,4.5-0.6,6.7-0.9c1.2-0.2,1.7-0.8,1.6-1.7c-0.1-1-0.9-1.5-2.1-1.3c-1.7,0.2-3.4,0.5-5.1,0.7
		c-4.8,0.5-9.6,1-14.4,1.5c-0.3,0-0.6-0.1-1.2-0.1c1.2-1.2,2.2-2.2,3.1-3.2c1.1-1.3,2.3-2.1,4.1-1.6c0.4,0.1,0.8,0.1,1.3,0
		c5.5-0.3,11.1-0.6,16.6-1c2.5-0.2,4.9-0.6,7.3-0.9c1.1-0.2,1.7-0.9,1.6-1.8c-0.1-0.9-0.9-1.4-2-1.3c-0.7,0.1-1.4,0.2-2.2,0.3
		c-5.8,0.5-11.6,1-17.4,1.4c-1.2,0.1-2.4,0-3.5,0c-0.1-0.1-0.2-0.3-0.3-0.4c0.3-0.1,0.6-0.2,0.8-0.4c1.2-0.8,2.4-1.7,3.6-2.6
		c0.6-0.4,1.2-0.6,1.9-0.6c1.8,0,3.6,0,5.4,0c5.4,0,10.7-0.4,15.9-1.6c1.4-0.3,2.7-0.8,4-1.3c0.9-0.3,1.2-1.1,0.9-1.9
		c-0.3-0.8-0.9-1.2-1.9-1c-0.2,0-0.3,0.1-0.5,0.1c-5.9,2.1-12,2.4-18.1,2.5c-0.3,0-0.5-0.1-1-0.2c0.4-0.3,0.5-0.4,0.7-0.5
		c4.4-2.2,8.9-3.9,13.8-4.8c1.8-0.3,3.6-0.4,5.5-0.6c1-0.1,1.7-0.7,1.7-1.5c0-0.8-0.6-1.4-1.5-1.5c-0.4-0.1-0.8-0.1-1.3,0
		c-1.3,0.1-2.6,0.2-3.9,0.5c-7.6,1.4-14.6,4.3-21.2,8.4c-7,4.3-13,9.9-18.4,16.1c-5.7,6.7-11.2,13.6-15.2,21.6
		c-0.1,0.1-0.2,0.2-0.3,0.4c-0.1-0.2-0.3-0.3-0.4-0.5c-6.2-11.7-14.5-21.9-24.3-30.7c-7.9-7.1-17-12.1-27.3-14.6
		c-2.6-0.6-5.2-1.1-7.9-1.1c-1.2,0-1.8,0.6-1.8,1.6c0,1,0.6,1.4,1.8,1.5c0.9,0.1,1.9,0.1,2.8,0.2c5.5,0.7,10.7,2.6,15.7,5
		c0.4,0.2,0.7,0.4,1.4,0.8c-0.7,0.1-1.1,0.1-1.4,0.1c-2.7-0.1-5.5-0.2-8.2-0.5c-3.3-0.3-6.6-0.9-9.7-2c-0.3-0.1-0.6-0.2-0.9-0.2
		c-0.7,0-1.2,0.3-1.4,1c-0.2,0.6-0.1,1.3,0.5,1.7c0.4,0.3,0.8,0.5,1.3,0.6c2.1,0.6,4.2,1.2,6.4,1.6c5.7,1,11.5,1.1,17.2,1
		c1.3,0,2.4,0.3,3.5,1.1c1.1,0.9,2.3,1.7,3.4,2.6c0,0.1-0.1,0.2-0.1,0.4c-0.4,0-0.8,0-1.2,0c-7-0.2-14-0.7-21-1.7
		c-0.5-0.1-0.9-0.2-1.4-0.2c-0.8,0-1.3,0.5-1.4,1.2c-0.2,0.8,0.2,1.5,1,1.8c0.3,0.1,0.7,0.2,1.1,0.2c5.1,0.5,10.1,1.1,15.2,1.5
		c3.7,0.2,7.3,0.2,11,0.2c0.6,0,1.1,0.2,1.5,0.6c1.2,1.2,2.4,2.4,3.5,3.6c0.2,0.2,0.3,0.5,0.5,0.8c-0.4,0-0.6,0.1-0.8,0
		c-4-0.4-8-0.7-12.1-1.2c-2.6-0.3-5.2-0.7-7.8-1c-1.1-0.1-1.9,0.4-2,1.3c-0.1,0.9,0.5,1.6,1.5,1.8c0.2,0,0.3,0,0.5,0.1
		c7.6,1.1,15.3,2.1,23,2.4c0.4,0,0.9,0.1,1.1,0.3c1.2,1.3,2.4,2.8,3.7,4.4c-0.6,0-0.8,0-1.1,0c-4.6-0.6-9.3-1.1-13.9-1.7
		c-1.4-0.2-2.8-0.4-4.2-0.6c-0.9-0.1-1.6,0.4-1.7,1.2c-0.2,0.8,0.3,1.5,1.2,1.8c0.5,0.1,0.9,0.2,1.4,0.3c6.7,0.8,13.3,1.5,20,2.3
		c0.4,0,0.9,0.1,1.1,0.4c1,1.3,2,2.7,3.1,4.3c-1-0.1-1.5-0.1-2.1-0.2c-3.4-0.6-6.8-1.2-10.2-1.9c-0.6-0.1-1.1-0.2-1.7-0.2
		c-0.8,0-1.3,0.5-1.4,1.2c-0.1,0.8,0.2,1.4,1,1.7c0.2,0.1,0.4,0.1,0.6,0.2c4.9,0.9,9.8,2.1,14.9,2.4c0.4,0,0.9,0.2,1.1,0.4
		c1.1,1.7,2.1,3.5,2.9,5.6c-1-0.3-1.7-0.5-2.4-0.7c-10.9-3.4-21.8-6.4-33.3-7.2c-6.2-0.5-12.4-0.2-18.5,0.9
		c-8,1.5-15.4,4.6-22.9,7.8c-1,0.4-1.4,1.3-1.1,2.1c0.3,0.8,1.2,1.1,2.3,0.7c1-0.4,2-0.9,3.1-1.3c4.1-1.6,8.2-3.2,12.3-4.7
		c1.7-0.6,3.6-1,5.4-1.4c-0.1,0.4-0.3,0.6-0.5,0.7c-4.6,2.5-9.2,4.9-13.9,7.4c-1.1,0.6-1.6,1.3-1.2,2.2c0.4,0.9,1.2,1.1,2.4,0.7
		c0.8-0.3,1.6-0.7,2.4-1.1c4.9-2.7,9.8-5.4,14.8-8.1c1.9-1,3.8-2.4,5.9-2.9c2.1-0.5,4.5-0.1,6.7-0.1c0.3,0,0.6,0.1,1,0.2
		c-0.1,0.2-0.2,0.2-0.2,0.2c-6.2,3.2-12.4,6.4-18.9,8.9c-1.2,0.5-1.7,1.1-1.4,2.1c0.3,0.9,1.1,1.3,2.3,0.9c1-0.3,1.9-0.6,2.8-1.1
		c6.3-3.1,12.6-6.1,18.9-9.2c2.9-1.4,2.9-1.5,6.1-0.9c1.3,0.2,2.6,0.5,4,0.7c-0.4,0.5-0.9,0.8-1.3,1c-4.6,2.1-9.3,4.2-13.9,6.3
		c-0.4,0.2-0.8,0.3-1.1,0.5c-0.7,0.4-1,1.2-0.7,1.9c0.3,0.7,1,1.1,1.8,0.9c0.4-0.1,0.8-0.3,1.2-0.4c6.2-2.9,12.3-5.8,18.5-8.6
		c0.4-0.2,0.8-0.3,1.2-0.3c1.1,0.2,2.1,0.5,3.4,0.8c-0.5,0.3-0.8,0.6-1.1,0.7c-3.3,1.6-6.6,3.2-9.9,4.8c-1,0.5-1.4,1.1-1.2,1.9
		c0.3,0.9,1,1.4,2.1,1c1-0.3,2-0.7,2.9-1.1c3.5-1.8,7.1-3.7,10.6-5.5c0.4-0.2,1-0.5,1.4-0.4c2.3,0.6,4.6,1.3,7.2,2.1
		c-0.8,0.4-1.3,0.6-1.7,0.8c-5.4,2.3-10.6,5.1-15.4,8.4c-7.8,5.3-14.6,11.7-19.4,19.8c-5.5,9.2-9.6,19.1-12.5,29.4
		c-0.1,0.5-0.2,0.9-0.2,1.4c0,0.7,0.4,1.2,1.1,1.4c0.7,0.2,1.4-0.1,1.8-0.7c0.2-0.4,0.3-0.9,0.4-1.3c2.1-7.6,5-14.9,8.5-22
		c0.2-0.4,0.4-0.7,0.6-1c-0.5,5.2-1.2,10.2-3.2,14.9c-0.1,0.3-0.2,0.6-0.3,0.9c-0.1,1.2,1.1,2,2.1,1.5c0.4-0.2,0.8-0.7,1-1.2
		c0.6-1.5,1.2-2.9,1.6-4.4c1.6-5.8,2.3-11.8,2.8-17.8c0.1-0.8,0.2-1.4,0.7-2c1.5-1.9,3-3.9,4.6-5.8c0.2-0.2,0.4-0.3,0.9-0.6
		c-0.2,1.5-0.2,2.7-0.4,3.8c-0.6,4.6-1.3,9.2-1.9,13.8c-0.2,1.2,0.1,1.9,1,2.2c0.9,0.3,1.6-0.2,2-1.3c0.1-0.2,0.2-0.5,0.2-0.8
		c0.2-1.2,0.5-2.5,0.6-3.7c0.7-5.6,1.3-11.2,2-16.9c0-0.4,0.1-0.9,0.4-1.1c1.5-1.4,3-2.7,5-4c0,0.9,0,1.5-0.1,2.1
		c-0.7,5.3-1.3,10.6-3,15.7c-0.4,1.1-0.1,1.9,0.8,2.2c0.9,0.3,1.7-0.1,2.1-1.1c0.3-0.8,0.6-1.6,0.8-2.4c1.4-5.9,2.3-11.8,2.7-17.8
		c0-0.4,0.1-1.1,0.4-1.3c1.7-1.1,3.4-2.2,5.3-3.3c0,0.5,0,0.8,0,1.1c-0.8,5.2-1.5,10.4-2.9,15.4c-0.3,1.1,0.1,1.9,1,2.1
		c0.9,0.2,1.7-0.2,2-1.3c0.4-1.3,0.7-2.5,0.9-3.8c0.8-4.6,1.5-9.2,2.2-13.8c0.2-1.1,0.5-1.8,1.6-2.2c1.9-0.8,3.8-1.7,5.8-2.5
		c0.5-0.2,1-0.4,1.7-0.6c0,0.6,0,1,0,1.4c-0.2,3.2-0.5,6.5-0.7,9.7c-0.5,6.5-1,13.1-1.4,19.6c-0.5,6.4-0.9,12.8-1.4,19.1
		c-0.6,7.9-1.2,15.8-1.8,23.7c-0.5,6.4-0.9,12.9-1.4,19.3c-0.6,7.9-1.2,15.8-1.8,23.7c-0.5,6.6-0.9,13.3-1.4,19.9
		c-0.1,1.9,0.3,2.4,2.1,2.4c6.3,0,12.7,0,19,0c1.8,0,2.3-0.5,2.2-2.4c-0.3-4.6-0.7-9.1-1-13.7c-0.5-6.7-1-13.5-1.5-20.2
		c-0.5-6.2-0.9-12.4-1.4-18.7c-0.5-6.5-1-13.1-1.4-19.6c-0.5-6.4-0.9-12.8-1.4-19.1c-0.6-7.9-1.2-15.8-1.8-23.7
		c-0.5-6.7-1-13.5-1.5-20.2c0-0.4,0-0.7,0-1.2c0.5,0.1,0.9,0.2,1.2,0.4c2.2,0.9,4.3,1.9,6.5,2.8c0.9,0.4,1.2,0.9,1.3,1.9
		c0.7,4.7,1.5,9.3,2.2,14c0.2,1.3,0.6,2.6,0.9,3.8c0.3,1.1,1,1.6,1.9,1.4c0.9-0.2,1.3-1,1.1-2.3c-0.8-3.8-1.6-7.7-2.3-11.6
		c-0.3-1.5-0.4-3-0.7-4.9c1.8,1.1,3.3,2.1,4.9,3c0.7,0.4,0.9,0.9,0.9,1.6c0.2,5.2,1,10.2,2.1,15.3c0.4,1.7,0.9,3.4,1.5,5.1
		c0.3,1,1.2,1.3,2,1c0.8-0.3,1.2-1.1,0.8-2.1c-1.8-5.3-2.4-10.7-3.1-16.2c-0.1-0.5,0-1.1,0-1.9c1.6,1.3,3,2.5,4.4,3.5
		c0.6,0.5,0.9,1.1,1,1.9c0.7,6,1.4,12.1,2.2,18.1c0.1,1.1,0.4,2.2,0.7,3.2c0.3,1,1.1,1.4,1.9,1.1c0.8-0.3,1.2-1,1-2
		c-0.7-4.8-1.4-9.5-2.1-14.3c-0.2-1.1-0.2-2.2-0.4-3.7c0.6,0.5,0.9,0.8,1.2,1.2c1.3,1.6,2.5,3.2,3.8,4.8c0.8,1,1.2,2.2,1.2,3.5
		c0.2,4.8,0.9,9.5,2,14.1c0.6,2.5,1.4,4.9,2.3,7.3c0.4,1.2,1.3,1.5,2.2,1.1c0.8-0.4,1.1-1.2,0.6-2.3c-1.5-3.5-2.2-7.2-2.9-10.9
		c-0.2-1.4-0.4-2.8-0.6-4.4c0.3,0.3,0.4,0.3,0.4,0.4c0.2,0.4,0.4,0.7,0.6,1.1c3.5,7,6.3,14.2,8.4,21.7c0.1,0.4,0.2,0.8,0.4,1.2
		c0.3,0.8,1.1,1.1,1.9,0.9c0.7-0.2,1.1-0.9,1-1.7c-0.1-0.5-0.2-0.9-0.4-1.4c-2.4-8.4-5.7-16.4-9.6-24.2
		c-5.3-10.4-12.9-18.5-22.5-24.9c-4.8-3.2-9.9-5.9-15.2-8.2c-0.5-0.2-0.9-0.4-1.6-0.8c2.3-0.7,4.3-1.3,6.3-2
		c0.9-0.3,1.6-0.2,2.5,0.3c3.8,2,7.6,4,11.5,5.9c0.6,0.3,1.3,0.5,1.9,0.7c1,0.3,1.8-0.1,2-0.9c0.3-0.8-0.1-1.6-1.1-2
		c-0.2-0.1-0.4-0.1-0.6-0.2c-3.6-1.4-6.9-3.3-10.3-5.4c1-0.2,1.9-0.5,2.9-0.7c0.5-0.1,1,0,1.5,0.2c6.2,2.9,12.4,5.7,18.5,8.6
		c0.4,0.2,0.9,0.4,1.3,0.5c0.7,0.1,1.2-0.2,1.5-0.8c0.3-0.6,0.1-1.4-0.4-1.8c-0.4-0.3-0.8-0.4-1.3-0.6c-4.6-2.1-9.3-4.2-13.9-6.3
		c-0.5-0.2-1-0.5-1.4-0.7c0-0.1,0.1-0.2,0.1-0.3c1.8-0.3,3.6-0.5,5.4-0.9c1.4-0.3,2.5,0,3.7,0.6c6.7,3.3,13.5,6.6,20.2,9.9
		c0.9,0.4,1.8,0.7,2.8,1c1,0.3,1.7-0.2,2-1c0.2-0.8-0.2-1.5-1.2-1.9c-1.1-0.4-2.2-0.8-3.2-1.3c-5.2-2.5-10.3-5-15.4-7.5
		c-0.2-0.1-0.5-0.3-0.7-0.5c2.3-0.3,4.6-0.2,6.8-0.3c1,0,1.9,0.3,2.8,0.8c5.9,3.3,11.7,6.5,17.6,9.7c1.2,0.7,2.4,1.2,3.7,1.8
		C741,355.7,741.9,355.4,742.2,354.6z M669.1,373.5c0.1,0,0.2,0,0.2,0c0.3,4.4,0.7,8.8,1,13.3c-0.8,0-1.4,0-2.2,0
		C668.4,382.3,668.8,377.9,669.1,373.5z M677.3,482.3c0.1,2,0.3,4,0.5,6.1c-5.6,0-11.2,0-17,0c0.1-2.1,0.3-4,0.4-6
		C662.3,482,675.1,481.9,677.3,482.3z M677,478.9c-5.2,0-10.3,0-15.3,0c-0.3-1.2,0-5.6,0.4-7c4.7,0,9.5,0,14.4,0
		C676.7,474.2,676.8,476.5,677,478.9z M675.8,461.6c0.2,2.4,0.3,4.6,0.5,7c-4.8,0-9.3,0-14.1,0c0.2-2.3,0.3-4.5,0.5-6.9
		C667,461.6,671.3,461.6,675.8,461.6z M675.5,458.4c-4.2,0-8.3,0-12.6,0c0.2-2.3,0.3-4.6,0.5-7c3.9,0,7.7,0,11.6,0
		C675.2,453.7,675.4,456,675.5,458.4z M674.3,441.3c0.2,2.4,0.3,4.5,0.5,6.7c-1.2,0.3-8.5,0.4-11.1,0.1c0.2-2.2,0.3-4.5,0.5-6.8
		C667.6,441.3,670.8,441.3,674.3,441.3z M674.1,438c-3.3,0-6.4,0-9.6,0c0.2-2.4,0.3-4.6,0.5-7c2.9,0,5.7,0,8.6,0
		C673.7,433.3,673.9,435.5,674.1,438z M673.3,427.7c-2.7,0-5.3,0-8.1,0c0.2-2.4,0.3-4.6,0.5-6.9c2.4,0,4.6,0,7.1,0
		C672.9,423.1,673.1,425.3,673.3,427.7z M672.3,413.9c0.1,1.1,0.2,2.3,0.3,3.6c-2.2,0-4.3,0-6.7,0c0.2-2.4,0.4-4.6,0.5-7
		c1.9,0,3.7,0,5.6,0C672.1,411.7,672.2,412.8,672.3,413.9z M671.8,407.2c-1.7,0-3.4,0-5.2,0c0.2-2.4,0.3-4.5,0.5-6.8
		c1.4,0,2.7,0,4.2,0C671.5,402.7,671.6,404.9,671.8,407.2z M671,397.1c-1.3,0-2.4,0-3.6,0c-0.1-2.3,0.4-4.6,0.4-7c0.9,0,1.7,0,2.7,0
		C670.7,392.4,670.9,394.7,671,397.1z"/>
	<path class="st1" d="M342,491.6c1.4-0.1,1.9-0.6,1.9-1.9c0-0.6-0.1-1.3-0.1-1.9c-0.5-6.6-1-13.2-1.5-19.8
		c-0.4-4.9-0.7-9.8-1.1-14.7c-0.5-6.6-1-13.2-1.5-19.8c-0.4-4.9-0.7-9.8-1.1-14.7c-0.5-6.6-1-13.2-1.5-19.8
		c-0.5-6.3-0.9-12.7-1.4-19c-0.6-7.9-1.2-15.8-1.8-23.7c-0.1-1.1-0.1-2.3-0.2-3.5c0.4,0.1,0.6,0.1,0.8,0.2c2.4,1,4.8,2.1,7.2,3.2
		c0.8,0.3,0.9,0.9,1,1.6c0.9,5.4,1.8,10.8,2.8,16.3c0.1,0.7,0.3,1.4,0.6,2.1c0.5,1,1.7,1.3,2.5,0.6c0.6-0.6,0.5-1.2,0.3-1.9
		c-0.8-3.9-1.6-7.8-2.3-11.7c-0.3-1.4-0.4-2.9-0.7-4.7c2,1.2,3.7,2.3,5.4,3.3c0.3,0.2,0.4,0.7,0.4,1.1c0.2,5,1,10,2,14.9
		c0.4,1.9,1,3.9,1.6,5.7c0.3,0.9,1.3,1.2,2.1,0.8c0.7-0.3,1-1.1,0.7-2c-1.6-4.5-2.1-9.3-2.9-14c-0.2-1.3-0.3-2.5-0.4-3.8
		c0.1-0.1,0.2-0.1,0.3-0.2c1.4,1.1,2.8,2.3,4.2,3.4c0.6,0.5,0.8,1,0.9,1.7c0.6,5.3,1.2,10.5,1.8,15.8c0.2,1.8,0.6,3.6,1,5.4
		c0.2,1.1,1.1,1.6,1.9,1.4c0.9-0.2,1.3-1,1.1-2.1c-0.2-0.9-0.4-1.7-0.5-2.6c-0.6-4.8-1.2-9.7-1.8-14.5c0-0.2,0-0.3,0-0.5
		c0.1-0.1,0.3-0.2,0.4-0.3c0.2,0.4,0.4,0.7,0.7,1.1c1.3,1.7,2.7,3.4,4,5.1c0.8,0.9,1,2,1.1,3.2c0.3,5.6,1.1,11.2,2.6,16.6
		c0.5,1.7,1.1,3.4,1.8,5c0.2,0.5,0.7,0.9,1.2,1.1c0.5,0.3,1.1,0,1.5-0.5c0.5-0.6,0.4-1.3,0.1-1.9c-1.6-3.6-2.3-7.4-3-11.2
		c-0.2-1.1-0.3-2.3-0.5-3.6c0.3,0.1,0.4,0.2,0.5,0.2c0.2,0.3,0.4,0.6,0.5,1c3.4,6.9,6.2,14,8.3,21.4c0.1,0.5,0.2,1,0.5,1.5
		c0.3,0.7,1.1,1,1.8,0.8c0.7-0.2,1.1-0.8,1-1.6c-0.1-0.6-0.2-1.1-0.4-1.7c-2.3-8-5.3-15.8-9.2-23.2c-3.4-6.7-7.6-12.8-13.1-18
		c-7.3-6.8-15.8-12-24.9-16c-0.5-0.2-1-0.4-1.5-0.7c2.1-0.9,4.1-1.5,6.1-2.2c0.9-0.3,1.6-0.1,2.4,0.3c3.6,2,7.3,3.8,11,5.7
		c0.8,0.4,1.6,0.7,2.5,0.9c0.9,0.2,1.7-0.2,1.9-0.9c0.3-0.8-0.1-1.6-1-2c-3.3-1.5-6.5-3.1-9.8-4.7c-0.4-0.2-0.8-0.5-1.4-0.8
		c1.2-0.3,2.2-0.6,3.1-0.8c0.5-0.1,1,0,1.5,0.2c6.1,2.8,12.3,5.7,18.4,8.6c0.4,0.2,0.9,0.4,1.3,0.5c0.7,0.2,1.4-0.2,1.7-0.8
		c0.3-0.7,0.1-1.5-0.5-2c-0.3-0.2-0.8-0.4-1.1-0.5c-4.6-2.1-9.3-4.2-13.9-6.3c-0.5-0.2-1-0.5-1.6-0.8c0.5-0.2,0.7-0.3,0.9-0.3
		c2-0.3,3.9-0.7,5.9-0.9c0.6-0.1,1.2,0.1,1.8,0.4c2.2,1.1,4.3,2.2,6.4,3.3c5,2.4,10.1,4.8,15.2,7.2c0.8,0.4,1.6,0.6,2.4,0.8
		c0.9,0.2,1.6-0.3,1.8-1c0.2-0.8-0.2-1.5-1-1.9c-0.8-0.3-1.6-0.5-2.4-0.9c-5.5-2.6-11-5.2-16.4-7.9c-0.2-0.1-0.4-0.3-0.9-0.8
		c2.3,0,4.2,0.1,6.2,0c1.6-0.1,3,0.5,4.4,1.3c6,3.4,12.1,6.7,18.2,10c0.8,0.4,1.6,0.8,2.4,1.1c1,0.4,1.8,0,2.1-0.7
		c0.4-0.9,0-1.6-1-2.1c-4.5-2.4-9.1-4.8-13.6-7.2c-0.4-0.2-0.7-0.5-1-0.7c2.3,0.3,4.4,0.8,6.5,1.5c4.3,1.6,8.6,3.3,12.9,5
		c0.7,0.3,1.4,0.6,2.1,0.7c0.8,0.2,1.5-0.3,1.7-1c0.2-0.7,0-1.4-0.6-1.8c-0.2-0.1-0.5-0.2-0.7-0.3c-2.4-1-4.7-2-7.1-3
		c-8.6-3.5-17.4-5.7-26.7-5.9c-7-0.1-13.8,0.7-20.6,2.1c-7.1,1.4-13.9,3.5-20.8,5.6c-0.4,0.1-0.9,0.2-1.7,0.4c1.1-2,1.9-3.8,2.9-5.4
		c0.2-0.3,0.9-0.6,1.3-0.6c4.6-0.3,9.1-1.2,13.6-2.2c0.6-0.1,1.3-0.2,1.8-0.4c0.7-0.2,1.1-1,1-1.6c-0.1-0.7-0.7-1.2-1.4-1.3
		c-0.6,0-1.1,0.1-1.7,0.2c-2.7,0.5-5.4,1.1-8.2,1.6c-1.2,0.2-2.5,0.5-4.1,0.4c1-1.4,1.8-2.5,2.6-3.7c0.4-0.6,0.9-0.9,1.7-0.9
		c6-0.6,12-1.3,18-2c1.1-0.1,2.2-0.3,3.3-0.5c0.9-0.2,1.4-0.9,1.2-1.7c-0.1-0.8-0.8-1.3-1.7-1.3c-0.3,0-0.5,0.1-0.8,0.1
		c-4.6,0.6-9.1,1.2-13.7,1.8c-1.4,0.2-2.9,0.3-4.3,0.4c-0.1-0.1-0.1-0.2-0.2-0.3c1.2-1.4,2.4-2.9,3.6-4.2c0.2-0.2,0.7-0.2,1-0.3
		c3.8-0.3,7.6-0.5,11.4-0.9c4-0.4,8-1,12-1.5c1.2-0.2,1.7-0.8,1.5-1.8c-0.1-0.9-0.8-1.4-2-1.3c-0.9,0.1-1.9,0.3-2.8,0.4
		c-5.4,0.6-10.8,1.2-16.3,1.8c-0.5,0.1-1,0-1.9,0c1.4-1.4,2.6-2.6,3.7-3.8c0.9-1,1.9-1.4,3.2-1.1c0.5,0.1,1,0.1,1.6,0.1
		c7.9-0.1,15.8-0.7,23.7-1.8c1.5-0.2,2.2-0.9,2-1.9c-0.2-1-1-1.4-2.5-1.2c-6.7,1-13.6,1.4-20.4,1.8c-0.8,0-1.5,0-2.3,0
		c0-0.1-0.1-0.2-0.1-0.4c1.3-0.9,2.5-1.8,3.8-2.8c0.9-0.7,1.8-0.9,2.9-0.9c5.2,0.1,10.4,0.1,15.5-0.6c3.1-0.4,6.1-1,9-2.1
		c1.1-0.4,1.5-1.2,1.2-2.1c-0.3-0.9-1.1-1.2-2.2-0.8c-1,0.3-2,0.7-3,0.9c-5.1,1.2-10.2,1.6-15.4,1.7c-0.2,0-0.4-0.1-0.9-0.3
		c5.3-2.7,10.5-4.6,16.1-5.5c1.3-0.2,2.7-0.2,4.1-0.3c0.8-0.1,1.4-0.6,1.5-1.4c0.1-0.7-0.4-1.4-1.2-1.6c-0.5-0.1-1-0.1-1.6-0.1
		c-1.8,0.2-3.7,0.4-5.4,0.8c-9.7,2.1-18.2,6.5-26,12.5c-5,3.9-9.3,8.5-13.4,13.3c-5.3,6.2-10.2,12.7-13.8,20
		c-0.1,0.1-0.2,0.2-0.4,0.3c-0.1-0.2-0.2-0.3-0.3-0.4c-2.8-5.7-6.5-10.9-10.5-15.9c-4.8-6-9.9-11.9-15.9-16.7
		c-7.9-6.3-16.7-11-26.7-13.1c-2.1-0.5-4.4-0.6-6.5-0.7c-1.1-0.1-1.7,0.7-1.7,1.7c0.1,0.9,0.6,1.4,1.7,1.4c0.9,0.1,1.9,0.1,2.8,0.2
		c5.6,0.7,10.8,2.6,15.8,5c0.4,0.2,0.7,0.4,1,0.6c-1.3,0.2-2.6,0.3-3.9,0.2c-5.1-0.3-10.3-0.7-15.1-2.5c-0.3-0.1-0.6-0.2-0.9-0.2
		c-0.6,0-1.1,0.3-1.3,0.9c-0.2,0.6-0.2,1.3,0.4,1.7c0.3,0.2,0.7,0.4,1.1,0.6c1.6,0.5,3.2,1,4.9,1.3c5.4,1.1,10.9,1.4,16.4,1.3
		c1.6,0,3.3-0.2,4.8,0.3c1.5,0.5,2.8,1.8,4.1,2.8c0.2,0.2,0.4,0.4,0.7,0.8c-0.7,0-1.1,0-1.5,0c-6.2-0.5-12.3-0.9-18.5-1.4
		c-1.1-0.1-2.3-0.3-3.4-0.5c-1.1-0.1-1.7,0.4-1.8,1.3c-0.1,0.9,0.4,1.5,1.4,1.8c0.3,0.1,0.5,0.1,0.8,0.1c3.3,0.4,6.6,0.9,9.8,1.1
		c4.9,0.3,9.7,0.6,14.6,0.6c1.9,0,3.2,0.4,4.4,1.7c0.9,1,1.9,2,3.1,3.2c-0.8,0-1.2,0-1.6,0c-4.7-0.5-9.4-1-14.1-1.5
		c-1.8-0.2-3.6-0.5-5.5-0.7c-1-0.1-1.7,0.5-1.8,1.3c-0.1,0.8,0.5,1.5,1.4,1.7c0.2,0,0.4,0,0.6,0.1c7.6,1.1,15.3,2.1,23,2.4
		c0.3,0,0.8,0,1,0.3c1.2,1.4,2.4,2.8,3.8,4.5c-0.6,0-0.9,0-1.1,0c-4.6-0.6-9.3-1.1-13.9-1.7c-1.4-0.2-2.8-0.4-4.2-0.6
		c-0.7-0.1-1.3,0.2-1.5,0.8c-0.1,0.5-0.1,1.2,0.2,1.6c0.2,0.3,0.8,0.5,1.2,0.6c1.5,0.3,3.1,0.5,4.7,0.7c5.1,0.6,10.2,1.3,15.3,1.7
		c1.5,0.1,2.5,0.5,3.2,1.8c0.5,1,1.5,1.7,1.8,3c-0.6-0.1-1.2-0.1-1.7-0.2c-3.5-0.6-6.9-1.3-10.4-1.9c-0.6-0.1-1.1-0.2-1.7-0.2
		c-0.7,0-1.2,0.5-1.3,1.1c-0.2,0.7,0.1,1.4,0.8,1.7c0.3,0.2,0.7,0.2,1.1,0.3c4.9,1,9.7,2.1,14.7,2.4c0.4,0,1,0.3,1.1,0.6
		c1,1.7,1.8,3.4,2.7,5.1c-0.1,0.1-0.1,0.2-0.2,0.3c-0.7-0.2-1.4-0.4-2.1-0.6c-7.1-2.3-14.3-4.3-21.7-5.7c-9-1.7-18-2.4-27.1-1.1
		c-9.2,1.3-17.7,4.8-26.1,8.4c-0.9,0.4-1.2,1.3-0.8,2.1c0.3,0.7,1.1,1.1,2,0.8c0.9-0.3,1.7-0.7,2.6-1.1c4.3-1.7,8.6-3.4,12.9-4.9
		c1.8-0.6,3.7-1,5.5-1.5c-0.2,0.4-0.5,0.7-0.8,0.8c-4.6,2.4-9.2,4.9-13.7,7.3c-1.1,0.6-1.5,1.2-1.1,2.1c0.4,0.9,1.2,1.2,2.4,0.8
		c0.9-0.3,1.7-0.8,2.6-1.2c5.2-2.8,10.4-5.7,15.6-8.5c4.8-2.7,4.8-2.7,10.4-2.5c0.7,0,1.5,0.1,2.2,0.1c0,0.1,0,0.2,0,0.4
		c-1.4,0.7-2.9,1.5-4.3,2.2c-4,1.9-8,3.8-12.1,5.7c-0.9,0.4-2,0.8-2.9,1.1c-1,0.4-1.4,1.1-1.1,1.9c0.2,0.8,1,1.2,2,1
		c0.4-0.1,0.8-0.2,1.2-0.4c1.2-0.5,2.4-0.9,3.5-1.5c6.3-3.1,12.6-6.2,18.9-9.3c0.5-0.2,1.1-0.6,1.6-0.6c2.3,0.3,4.5,0.7,6.8,1.1
		c0,0,0.1,0.2,0.1,0.3c-0.5,0.2-0.9,0.5-1.4,0.7c-4.6,2.1-9.3,4.2-13.9,6.3c-0.4,0.2-0.8,0.3-1.1,0.5c-0.6,0.4-0.8,1.1-0.6,1.8
		c0.3,0.7,1,1.1,1.8,0.9c0.4-0.1,0.8-0.2,1.2-0.4c6.2-2.9,12.3-5.8,18.5-8.6c0.4-0.2,0.9-0.3,1.3-0.2c1,0.2,2,0.5,3.2,0.8
		c-0.5,0.3-0.7,0.6-1,0.7c-3.3,1.6-6.6,3.2-9.9,4.8c-1,0.5-1.4,1-1.2,1.9c0.2,0.9,1,1.4,2.1,1c1-0.3,2-0.7,2.9-1.1
		c3.5-1.8,7.1-3.6,10.6-5.5c0.7-0.4,1.3-0.5,2.1-0.2c2,0.7,4.1,1.3,6.2,1.9c0,0.1,0,0.2,0.1,0.3c-0.5,0.2-0.9,0.4-1.4,0.6
		c-6.7,2.9-13,6.4-18.8,10.8c-5.9,4.5-11.1,9.6-15.1,15.9c-6.1,9.7-10.5,20.2-13.6,31.2c-0.1,0.4-0.2,0.8-0.2,1.2
		c0,0.7,0.4,1.2,1.1,1.4c0.7,0.2,1.4-0.1,1.7-0.7c0.2-0.4,0.3-0.8,0.4-1.2c2.1-7.5,4.9-14.7,8.3-21.7c0.2-0.5,0.5-1,0.8-1.5
		c0.2,0.3,0.2,0.6,0.2,0.8c-0.7,4.9-1.5,9.7-3.5,14.3c-0.4,1-0.1,1.8,0.6,2.2c0.8,0.4,1.7,0.1,2.2-0.9c0.4-0.8,0.8-1.7,1-2.6
		c1.8-5.3,2.6-10.8,3.1-16.3c0.5-5.1,0.4-5.1,3.6-9c0.4-0.4,0.7-0.9,1.1-1.3c0.5-0.5,1-1,1.7-1.8c0,0.6,0,0.9,0,1.1
		c-0.7,5.5-1.5,11-2.2,16.5c0,0.3-0.1,0.6-0.1,0.9c0,0.8,0.4,1.3,1.2,1.5c0.7,0.2,1.3-0.1,1.6-0.7c0.2-0.3,0.4-0.8,0.4-1.2
		c0.2-1.2,0.5-2.4,0.6-3.6c0.7-5.6,1.3-11.2,2-16.9c0.1-0.5,0.1-1.2,0.4-1.5c1.5-1.5,3.1-2.7,5-4.1c0,0.4,0.1,0.6,0.1,0.8
		c-0.6,5.8-1.3,11.6-3.2,17.1c-0.3,1,0,1.8,0.8,2.1c0.9,0.3,1.7,0,2.1-1c0.3-0.7,0.5-1.4,0.7-2.1c1.5-6,2.5-12.1,2.8-18.3
		c0-0.4,0.1-1,0.4-1.2c1.6-1.1,3.3-2.1,5.2-3.3c0,0.5,0,0.8,0,1c-0.6,3.4-1.1,6.8-1.7,10.2c-0.3,1.9-0.9,3.7-1.3,5.5
		c-0.2,0.9,0.3,1.6,1,1.9c0.8,0.2,1.5-0.1,1.9-1c0.2-0.4,0.3-0.8,0.4-1.2c0.4-2,0.9-4,1.3-6c0.6-3.6,1.1-7.1,1.6-10.7
		c0.2-1.2,0.6-1.9,1.7-2.3c1.6-0.6,3.1-1.4,4.6-2c0.9-0.4,1.7-0.7,2.7-1.1c0,0.8,0,1.3,0,1.9c-0.4,6.1-0.9,12.2-1.3,18.4
		c-0.5,6.8-1,13.6-1.5,20.4c-0.3,4.7-0.7,9.4-1,14.1c-0.5,6.6-1,13.2-1.5,19.8c-0.5,6.4-0.9,12.8-1.4,19.1c-0.5,6.8-1,13.6-1.5,20.4
		c-0.4,5-0.8,10-1.1,15.1c-0.2,2.6-0.4,5.2-0.5,7.8c-0.1,1.4,0.4,1.9,1.8,2c0.3,0,0.5,0,0.8,0c6,0,12.1,0,18.1,0
		C341.5,491.6,341.7,491.6,342,491.6z M332,373.8c0.1,0,0.2,0,0.3,0c0.3,4.3,0.6,8.6,1,13c-0.8,0-1.4,0-2.2,0
		C331.4,382.4,331.7,378.1,332,373.8z M330.9,390.1c0.9,0,1.7,0,2.7,0c0.2,2.3,0.3,4.6,0.5,7c-1.3,0-2.4,0-3.7,0
		C330.5,394.7,330.7,392.5,330.9,390.1z M330.1,400.4c1.4,0,2.7,0,4.1,0c0.2,2.3,0.3,4.5,0.5,6.9c-1.7,0.2-3.3,0.1-5,0.1
		C329.6,405,330,402.7,330.1,400.4z M329.4,410.5c1.9,0,3.7,0,5.6,0c0.2,2.3,0.3,4.6,0.5,7c-2.4,0-4.4,0-6.7,0
		C329,415.1,329.2,412.9,329.4,410.5z M328.6,420.8c2.4,0,4.7,0,7.1,0c0.2,2.3,0.4,4.5,0.5,6.7c-1.1,0.4-5.8,0.5-8.1,0.1
		C328.3,425.4,328.5,423.1,328.6,420.8z M327.9,431c2.9,0,5.6,0,8.6,0c0.2,2.3,0.3,4.6,0.5,6.8c-1.2,0.4-7.6,0.4-9.6,0.1
		C327.6,435.6,327.7,433.3,327.9,431z M327.1,441.4c1.2-0.3,7.6-0.4,10.1-0.2c0.2,2.3,0.3,4.5,0.5,6.8c-3.8,0-7.3,0-11.1,0
		C326.8,445.8,327,443.6,327.1,441.4z M326.3,451.7c1.2-0.4,9.5-0.4,11.7-0.1c0.2,2.2,0.3,4.5,0.5,6.9c-4.2,0-8.3,0-12.5,0
		C325.8,456.1,326.4,453.9,326.3,451.7z M325.7,461.7c4.4,0,8.6,0,13.1,0c0.1,0.4,0.1,0.6,0.1,0.9c0.1,1.9,0.3,3.9,0.4,6
		c-4.7,0.1-9.3,0-14.1,0C325.3,466.3,325.5,464.1,325.7,461.7z M324.9,471.9c4.9,0,9.6,0,14.6,0c0.2,2.3,0.3,4.5,0.5,6.8
		c-1.2,0.3-13.5,0.4-15.6,0.1C324.6,476.5,324.7,474.2,324.9,471.9z M323.8,488.4c-0.2-2.1,0.3-4.1,0.3-6.2c5.4,0,10.7,0,16.1,0
		c0.2,2.1,0.3,4.1,0.5,6.2C335.1,488.4,329.5,488.4,323.8,488.4z"/>
	<path class="st1" d="M759.9,605.4c2.8,2.3,6.1,3.9,9.6,4.9c9.5,2.6,19,2.9,28.6,1.1c4.2-0.8,8.3-2.3,11.9-4.6
		c6.4-4.2,9.6-10.1,9.4-17.7c-0.1-5-2.2-8.9-6.5-11.5c-1.2-0.7-2.4-1.3-3.7-1.8c-3.3-1.4-6.8-2.1-10.4-2.5c-6-0.6-12-1-18-1.6
		c-3.2-0.3-6.5-0.8-9.7-1.3c-2.1-0.3-4.1-1-5.8-2.2c-2-1.3-3-3.2-2.9-5.6c0.1-3.2,1.6-5.7,4.1-7.6c1.9-1.5,4.2-2.4,6.5-3.1
		c5.4-1.6,10.8-1.9,16.4-1.4c3.6,0.3,7.2,1,10.5,2.3c5.4,2.2,9.3,5.8,11,11.5c0,0.1,0.2,0.2,0.3,0.4c2.2-0.9,4.5-1.8,6.8-2.7
		c-1.1-5.9-3.8-10.6-8.7-13.9c-2.5-1.8-5.3-3-8.3-3.8c-9.3-2.4-18.8-2.6-28.2-0.4c-4.7,1.1-9.2,2.8-13.1,5.8
		c-3.9,3-6.3,6.9-6.8,11.8c-0.6,6.3,1.5,11.4,7.6,14.3c0.9,0.5,1.9,0.9,2.9,1.2c3.6,1.3,7.4,1.9,11.2,2.2c5.2,0.4,10.5,0.6,15.7,1
		c3.4,0.3,6.8,0.7,10.1,1.2c2.2,0.3,4.3,1,6.2,2.2c2.5,1.6,3.8,3.8,3.7,6.8c-0.1,3.8-1.9,6.7-5,8.8c-2.4,1.7-5.1,2.7-7.9,3.4
		c-6.6,1.7-13.4,1.8-20.1,0.9c-3.4-0.5-6.7-1.4-9.7-3c-3.9-2.1-6.6-5.2-7.9-9.3c-0.1-0.3-0.2-0.6-0.4-0.9c-2.3,0.9-4.6,1.8-6.9,2.7
		C753.7,598,756,602.2,759.9,605.4z"/>
	<path class="st1" d="M806.4,696.7c0.9-0.5,1.6-0.8,2.3-1.2c6.3-3.5,10.3-8.6,10.6-16c0.2-5.2-1.3-9.8-5.2-13.5
		c-1.9-1.8-4.2-3-6.6-3.9c-4.2-1.6-8.5-2.1-13-2.1c-12.8-0.1-25.7,0-38.5,0c-0.4,0-0.8,0.1-1.2,0.1c0,21.8,0,43.6,0,65.4
		c2.7,0,5.3,0,8,0c0-8.9,0-17.7,0-26.6c11.4-0.1,22.7-0.1,34.1-0.2c0.2,0.3,0.5,0.8,0.8,1.3c4.6,8.1,14.6,25.5,14.6,25.5l10.7,0
		C823,725.7,811.9,706.4,806.4,696.7z M800.8,690.7c-1.9,0.7-3.8,1-5.8,1.1c-10.3,0-20.5,0-30.8,0c-0.4,0-0.7,0-1.2-0.1
		c0-8,0-15.8,0-23.7c0.4,0,0.8-0.1,1.1-0.1c9.3-0.1,18.5-0.1,27.8-0.2c2.7,0,5.4,0.1,8,0.8c1.3,0.3,2.5,0.7,3.7,1.3
		c5,2.4,7.2,7.4,5.4,12.7C807.6,686.6,804.7,689.2,800.8,690.7z"/>
	<path class="st1" d="M387.1,717.8c-3.6,0-7,0-10.5,0c-3.5,0-6.9,0-10.4,0c-3.5,0-7,0-10.5,0c-3.5,0-6.9,0-10.4,0
		c-3.4,0-6.9,0.1-10.4-0.1c0-7.2,0-14.3,0-21.5c14.1,0,28.1,0,42.2,0c0-2.8,0-5.5,0-8.2c-2.1,0-4.1,0-6.1,0c-2,0-4.1,0-6.1,0
		c-2,0-4,0-6,0c-2,0-4,0-6,0c-2,0-4,0-6,0c-2,0-4.1,0-6.1,0c-2,0-3.9,0-5.9,0c-0.3-3.1-0.2-18.6,0.2-19.8c16.7,0,50,0,50,0l-0.1-7.9
		c0,0-38.7,0-58.1,0c0,21.9,0,43.6,0,65.5c20.1,0,40,0,60.1,0C387.1,723,387.1,720.5,387.1,717.8z"/>
	<path class="st1" d="M523.6,667.3c-5.7-4.8-12.5-7.1-19.8-7.3c-10.3-0.2-20.5,0-30.8,0c-1.4,0-2.7,0-4.1,0c0,22,0,43.8,0,65.6
		c0.7,0,1.2,0,1.8,0c10.1,0,20.2,0,30.4,0c2,0,4-0.2,5.9-0.5c11.7-1.9,19.8-8.3,24.3-19.2c2.7-6.5,3.4-13.3,2.4-20.2
		C532.7,678.4,529.4,672.1,523.6,667.3z M522.7,703.7c-3.5,7.6-9.6,11.9-17.8,13.6c-3.3,0.7-6.6,0.6-9.9,0.6c-5.8,0-11.5,0-17.3,0
		c-0.3,0-0.5,0-0.9-0.1c0-16.7,0-33.2,0-49.8c0.4-0.1,0.7-0.2,1.1-0.2c7-0.1,13.9-0.2,20.9-0.2c3.7,0,7.4,0.5,11,1.7
		c9.5,3.2,15.2,11,15.4,21C525.4,695,524.7,699.5,522.7,703.7z"/>
	<path class="st1" d="M657.4,717.8c-2.9,0-5.8,0-8.7,0c-2.9,0-5.9,0-8.8,0c-2.9,0-5.8,0-8.7,0c-2.9,0-5.7,0.1-8.6,0
		c0-7.3,0-14.3,0-21.6c14.1,0,42.1,0,42.1,0l-0.1-8.2c0,0-7,0-10.5,0c-3.5,0-7,0-10.5,0c-3.5,0-7,0-10.5,0c-3.5,0-7,0.1-10.4-0.1
		c-0.3-3.2-0.2-18.5,0.2-19.8c16.6,0,33.3,0,50,0c0-2.7,0-5.3,0-8c-19.4,0-38.8,0-58.1,0c-0.3,1.5-0.3,64.2,0,65.5
		c19.9,0,39.9,0,59.9,0c0-2.6,0-5.2,0-7.8c-3,0-5.9,0-8.7,0C663.2,717.8,660.3,717.8,657.4,717.8z"/>
	<path class="st1" d="M188.8,592.8c2.8,8.9,8.4,15.2,17.5,17.9c8.6,2.5,17.2,2.4,25.7-0.5c7.5-2.6,12.5-7.7,14.9-15.3
		c0.9-2.9,1.3-5.8,1.3-8.8c0-13.3,0-26.6,0-40c0-0.5,0-1-0.1-1.6c-2.7,0-5.3,0-8.1,0c0,0.7,0,1.3,0,1.9c0,12.3,0,24.7,0,37
		c0,1.7-0.1,3.5-0.3,5.2c-1.1,7.4-5,12.4-12.4,14.4c-5.6,1.5-11.2,1.6-16.8,0.2c-6.4-1.6-11-5.6-13.4-11.7c-0.8-1.9-1.2-4-1.7-6
		c-0.1-0.4-0.2-0.8-0.3-1.3c-2.6,0.8-5,1.5-7.4,2.3c0,0.4-0.1,0.8,0,1.2C187.9,589.4,188.2,591.1,188.8,592.8z"/>
	<path class="st1" d="M474.9,544.5c0,21.8,0,65.4,0,65.4H530l0-6.9l0-0.9c0,0-3.6,0-5.3,0c-1.7,0-3.5,0-5.2,0c-1.8,0-3.6,0-5.4,0
		c-1.7,0-3.5,0-5.2,0c-1.7,0-3.5,0-5.2,0c-1.7,0-3.5,0-5.2,0c-1.8,0-5.4,0-5.4,0l-5.2,0l-5.2,0c0,0,0-38.4,0-57.5
		C480.1,544.5,477.5,544.5,474.9,544.5z"/>
	<path class="st1" d="M614.3,544.5c0,21.9,0,43.6,0,65.4c18.4,0,36.6,0,55,0c0-2.6,0-5.2,0-7.8c-15.7,0-31.2,0-47,0
		c0-19.3,0-38.4,0-57.5C619.5,544.5,617,544.5,614.3,544.5z"/>
	<path class="st1" d="M460.4,786.9c3.7-1.7,5.8-4.6,5.9-8.7c0.1-4.2-1.8-7.3-5.5-9.3c-2.3-1.2-4.9-1.6-7.5-1.6c-6.9,0-13.8,0-20.8,0
		c-0.5,0-0.9,0.1-1.4,0.1c0,10.8,0,21.6,0,32.3c2.1,0,4.1,0,6.3,0c0-3.8,0-7.4,0-11.3c0.7,0,1.2,0,1.6,0c3.2,0,6.4,0,9.6,0
		c1.1,0,1.7,0.3,2.4,1.1c2.6,3.2,5.4,6.3,8,9.5c0.5,0.6,1,0.9,1.9,0.9c1.8-0.1,3.7,0,5.5,0c0.3,0,0.7-0.1,1.2-0.2
		c-3.5-4-6.8-7.8-10.2-11.7C458.6,787.6,459.5,787.3,460.4,786.9z M453.4,782.7c-5.1,0.1-10.1,0-15.2,0c-0.2,0-0.4-0.1-0.7-0.1
		c0-3.1,0-6.3,0-9.6c0.5,0,1-0.1,1.5-0.1c4.7,0,9.4,0,14.1,0c1.3,0,2.6,0.2,3.8,0.6c2,0.6,2.9,2.1,2.9,4.2c0,2.1-0.9,3.6-2.8,4.2
		C455.8,782.4,454.6,782.7,453.4,782.7z"/>
	<path class="st1" d="M615.9,768.6c-2.2-1-4.6-1.3-7-1.3c-6.8,0-13.5,0-20.3,0c-0.5,0-1,0-1.6,0.1c0,10.8,0,32.4,0,32.4h6.4
		c0,0,0-7.3,0-10.9c0.7,0,1.3,0,1.8,0c5,0,10.1,0,15.1-0.1c2,0,4-0.5,5.8-1.4c4-1.9,6-5.1,5.9-9.5
		C621.9,773.6,619.9,770.4,615.9,768.6z M612.6,782.5c-1.1,0.4-2.3,0.7-3.5,0.7c-5,0.1-9.9,0-14.9,0c-0.2,0-0.4-0.1-0.7-0.1
		c0-3.4,0-6.7,0-10.1c0.5,0,0.9-0.1,1.3-0.1c4.7,0,9.3,0,14,0c1.3,0,2.6,0.2,3.8,0.6c2,0.7,2.9,2.2,3,4.3
		C615.5,780.2,614.6,781.8,612.6,782.5z"/>
	<path class="st1" d="M353.1,609.9c2.7,0,5.3,0,7.9,0c0-21.8,0-43.6,0-65.4c-2.7,0-5.2,0-7.9,0C353.1,566.4,353.1,588.1,353.1,609.9
		z"/>
</g>
</svg>
