<svg id="Capa_1" enable-background="new 0 0 512 512" height="512" viewBox="0 0 512 512" width="512" xmlns="http://www.w3.org/2000/svg"><g><path d="m511.872 292.751h-53.022v-66.344c30.383-6.853 53.15-34.04 53.15-66.463v-13.669c0-37.577-30.57-68.147-68.146-68.147s-68.146 30.57-68.146 68.147v13.669c0 32.422 22.768 59.61 53.15 66.463v66.344h-278.075v-66.344c30.383-6.853 53.15-34.04 53.15-66.463v-13.669c0-32.863-23.382-60.366-54.383-66.749-4.421-37.159-36.105-66.074-74.434-66.074-41.345 0-74.981 33.636-74.981 74.981v64.677c0 36.21 25.802 66.505 59.985 73.471v66.169h-60.12v29.992h200.255c83.668 0 152.63 64.128 160.341 145.813h-29.152c-7.587-65.666-63.522-116.82-131.19-116.82h-200.254v29.992h200.255c51.105 0 93.556 37.749 100.943 86.828h-29.465c-7.037-33.003-36.406-57.835-71.477-57.835h-200.256v29.992h200.255c18.394 0 34.125 11.587 40.3 27.843h-240.555v29.992h511.872v-29.992h-121.166c-.753-9.49-2.197-18.79-4.292-27.843h125.457v-29.992h-135.099c-4.211-10.132-9.267-19.826-15.084-28.993h150.184v-29.992h-173.688c-10.539-11.001-22.375-20.749-35.263-28.993h208.95v-29.991zm-106.172-132.807v-13.669c0-21.039 17.116-38.154 38.154-38.154s38.154 17.116 38.154 38.154v13.669c0 21.038-17.116 38.154-38.154 38.154s-38.154-17.116-38.154-38.154zm-231.759-13.669v13.669c0 21.038-17.116 38.154-38.154 38.154s-38.154-17.116-38.154-38.154v-13.669c0-21.039 17.116-38.154 38.154-38.154s38.154 17.115 38.154 38.154zm-143.813 6.835v-64.677c0-24.807 20.182-44.989 44.989-44.989 21.976 0 40.31 15.843 44.211 36.705-29.649 7.383-51.687 34.224-51.687 66.125v13.669c0 14.036 4.268 27.092 11.571 37.945-1.359.124-2.723.209-4.095.209-24.807.001-44.989-20.181-44.989-44.987zm59.985 73.467c5.551-1.13 10.96-2.887 16.117-5.237 4.59 2.219 9.472 3.92 14.561 5.067v66.344h-30.678z"/></g></svg>