<svg id="Capa_1" enable-background="new 0 0 512.133 512.133" height="512" viewBox="0 0 512.133 512.133" width="512" xmlns="http://www.w3.org/2000/svg"><g><path d="m512.133 414.471v-48.405c0-24.813-20.187-45-45-45s-45 20.187-45 45v48.405c0 19.555 12.541 36.228 30 42.42v25.176h-60.633v-482h-271v482h-60.5v-25.176c17.459-6.192 30-22.865 30-42.42v-48.405c0-24.813-20.187-45-45-45s-45 20.187-45 45v48.405c0 19.555 12.541 36.228 30 42.42v25.176h-30v30h512v-30h-29.867v-25.176c17.458-6.192 30-22.865 30-42.42zm-482.133-48.405c0-8.271 6.729-15 15-15s15 6.729 15 15v48.405c0 8.271-6.729 15-15 15s-15-6.729-15-15zm209.448 116v-32h33.104v32zm-30-61.999v62h-58.948v-452h211v452h-58.948v-62zm242.685-54.001c0-8.271 6.729-15 15-15s15 6.729 15 15v48.405c0 8.271-6.729 15-15 15s-15-6.729-15-15z"/><path d="m181 60.066h30v60h-30z"/><path d="m241 60.066h30v60h-30z"/><path d="m301 60.066h30v60h-30z"/><path d="m181 150.066h30v60h-30z"/><path d="m241 150.066h30v60h-30z"/><path d="m301 150.066h30v60h-30z"/><path d="m181 240.066h30v60h-30z"/><path d="m241 240.066h30v60h-30z"/><path d="m301 240.066h30v60h-30z"/><path d="m181 330.066h30v60h-30z"/><path d="m241 330.066h30v60h-30z"/><path d="m301 330.066h30v60h-30z"/></g></svg>