<svg id="Capa_1" enable-background="new 0 0 512 512" height="512" viewBox="0 0 512 512" width="512" xmlns="http://www.w3.org/2000/svg"><g><path d="m120.5 227.854c0 24.813 20.187 45 45 45s45-20.187 45-45-20.187-45-45-45-45 20.187-45 45zm60 0c0 8.271-6.729 15-15 15s-15-6.729-15-15 6.729-15 15-15 15 6.729 15 15z"/><path d="m421.5 338.487v-25.175c17.459-6.192 30-22.865 30-42.42v-88.405c0-24.813-20.187-45-45-45s-45 20.187-45 45v88.405c0 19.555 12.541 36.228 30 42.42v25.175h-60.5v-124.853l-165.5-152.488-57.75 53.21v-20.913h-90v103.836l-17.75 16.355.001 237.221h511.999v-112.368zm-30-156c0-8.271 6.729-15 15-15s15 6.729 15 15v88.405c0 8.271-6.729 15-15 15s-15-6.729-15-15zm-343.75-59.044h30v18.553l-30 27.641zm142.945 297.411h-50.391v-74.734h50.391zm110.305 0h-80.305v-104.734h-110.39v104.734h-80.304l-.001-194.069 135.5-124.847 135.5 124.847zm121-52.367v52.367h-30v-52.367zm-91 0h31v52.367h-31zm151 52.367h-30v-52.367h30z"/></g></svg>