<svg id="Capa_1" enable-background="new 0 0 512 512" height="512" viewBox="0 0 512 512" width="512" xmlns="http://www.w3.org/2000/svg"><g><path d="m286.181 197.153 42.872 68.229h27.679v-128.5h-30v68.419l-42.872-68.229-27.679-.007v129.857h30z"/><path d="m236.474 236.009h-41.768v-19.564h38.688v-30h-38.688v-19.563h41.768v-30h-71.768v129.127h71.768z"/><path d="m400.878 266.922h30v-100.04h27.736v-30h-85.248v30h27.512z"/><path d="m95.386 229.674 37.56 43.406 22.686-19.63-32.558-37.626c15.472-6.13 26.4-20.824 26.4-37.942 0-22.607-19.052-41-42.471-41h-41.617v130.04h30zm0-62.792h11.617c6.76 0 12.471 5.037 12.471 11s-5.711 11-12.471 11c-2.784 0-7.184.016-11.617.036z"/><path d="m512 69.33h-189.227v-29.266l-66.773-40.064-66.773 40.064v29.266h-189.227v271h189.227v171.67h133.547v-171.67h189.226zm-292.773-12.281 36.773-22.064 36.773 22.064v12.28h-73.547v-12.28zm73.546 424.951h-73.547v-141.67h73.547zm189.227-171.67h-452v-211h452z"/></g></svg>