<?xml version="1.0" encoding="utf-8"?>
<!-- Generator: Adobe Illustrator 24.1.0, SVG Export Plug-In . SVG Version: 6.00 Build 0)  -->
<svg fill="#ffffff" version="1.1" id="Layer_1" xmlns="http://www.w3.org/2000/svg" xmlns:xlink="http://www.w3.org/1999/xlink" x="0px" y="0px"
	 viewBox="0 0 943.7 997.7" style="enable-background:new 0 0 943.7 997.7;" xml:space="preserve">
<g>
	<path d="M47.6,779.3c-7.9,0-27,0-27,0s52-53.3,77.7-79.8c-1.5-2.7-3-5.4-4.4-8c-30.7,0-61.2,0-92,0c0,4.1-0.1,8,0,12.2
		c24.6,0,73.8,0,73.8,0L0,781.9l4.7,9.5c0,0,63.7,0,94.5,0c0.8,0,1.6-0.1,2.4-0.1c0-4.1,0-7.9,0-12c-1,0-2,0-2.9,0
		C81.7,779.3,64.6,779.3,47.6,779.3z"/>
	<path d="M343.8,970.4c0-0.6-0.1-1.2-0.2-1.9c-9.8,0-19.4,0-29.2,0c0,2.8,0,5.5,0,8.4c6.7,0,13.2,0,19.6,0c1,3.2,0.3,5.6-2.3,7.4
		c-1.5,1-3.1,2.1-4.8,2.7c-7.4,2.5-14.8,2.5-22.1-0.2c-5.8-2.1-9.1-6.4-10-12.4c-0.2-1.5-0.2-3-0.2-4.5c0.3-7.2,4.1-12.4,10.9-14.8
		c5-1.7,10-1.8,15.2-1.2c4.8,0.6,8.9,2.7,12.1,6.2c0.3,0.3,0.6,0.5,0.9,0.7c2.6-1.9,5.1-3.7,7.8-5.6c-1.4-1.3-2.4-2.3-3.6-3.3
		c-4.7-3.7-10.1-5.9-16-6.6c-7.7-1-15.3-0.6-22.6,2.5c-7.7,3.3-12.5,9-14.2,17.2c-0.7,3.5-0.8,7-0.3,10.5
		c1.1,7.5,4.7,13.3,11.3,17.2c3,1.8,6.2,2.9,9.6,3.6c1.4,0.3,2.8,0.6,4.2,0.9c3.8,0.4,9.2,0.3,12.6-0.5c2.6-0.6,5.3-1.1,7.9-2
		c4.8-1.7,8.9-4.4,12-8.4c0.8-1.1,1.2-2.2,1.2-3.5C343.7,978.8,343.8,974.6,343.8,970.4z"/>
	<path d="M522.1,49.8c0,0,32.9,0,49.2,0c0-2.9,0-5.6,0-8.5c-2.8,0-5.5,0-8.1,0c-2.6,0-5.3,0-7.9,0c-2.6,0-5.1,0-7.7,0
		c-2.6,0-5.3,0-7.9,0c-2.6,0-5.2,0.1-7.9-0.1c0-2.2,0-4.1,0-6.1c0-2,0-3.9,0.1-6.1c11.1,0,21.8,0,32.7,0c0-3,0-5.6,0-8.6
		c-5.5,0-11,0-16.4,0c-5.4,0-10.8,0.1-16.2-0.1c0-3.9,0-7.5,0-11.3c13,0,25.8,0,38.8,0c0-3.2,0-6.1,0-9.1c-16.2,0-48.6,0-48.6,0v2.2
		V48L522.1,49.8z"/>
	<path d="M485.3,946.9c-8.8-2.9-17.7-2.9-26.4-0.2c-10.2,3.2-16.3,10.2-17.5,20.9c-1.3,11.7,3.4,22.9,16.9,27.6
		c1.4,0.5,2.9,0.8,4.4,1.2c1.3,0.3,2.6,0.6,3.9,0.9c3.6,0.5,6.9,0.5,10.6,0c1.5-0.3,3.1-0.7,4.7-1c11.8-2.6,19.2-10.2,20.6-21.7
		C503.8,962.2,498.3,951.2,485.3,946.9z M492.2,975.1c-1,5.5-4.2,9.3-9.3,11.4c-7.3,3-14.7,3-22,0c-6.1-2.5-9.4-7.3-9.7-13.9
		c-0.1-1.8-0.1-3.7,0.3-5.5c1-5.5,4.3-9.3,9.5-11.6c3.5-1.5,7.2-2.1,10.9-2c3.9-0.1,7.5,0.5,10.9,1.9c6.3,2.7,9.6,7.5,9.9,14.3
		C492.6,971.6,492.5,973.4,492.2,975.1z"/>
	<path d="M578.8,946.5c-3.2,0-6.3,0-9.5,0c0,2.7,0,5.1,0,7.6c0,6.3,0.1,12.6-0.1,19c-0.2,8-4.6,13.3-12,15
		c-3.8,0.8-7.6,0.8-11.4-0.3c-6-1.7-9.5-5.7-10.6-11.8c-0.3-1.6-0.4-3.3-0.4-5c0-7.3,0-14.6,0-21.8c0-0.9,0-1.7,0-2.7
		c-3.3,0-6.4,0-9.5,0c-0.1,0.4-0.2,0.6-0.2,0.8c0,9.1-0.2,18.3,0.1,27.3c0.4,11.2,7.4,19.2,18.3,21.8c1.2,0.3,2.5,0.6,3.7,0.9
		c1.7,0.2,3.3,0.4,5,0.4c1.5,0,3.1-0.2,4.7-0.4c1.4-0.3,2.8-0.6,4.2-1c8.8-2.3,14.8-7.6,17.1-16.6c0.6-2.2,0.8-4.6,0.8-6.9
		c0.1-8.1,0-16.2,0-24.2C579,947.9,578.9,947.2,578.8,946.5z"/>
	<path d="M388.2,9.2c0,13.7,0,27.2,0,40.7c3.4,0,6.4,0,9.7,0c0-13.6,0-27.1,0-40.8c7.4,0,21.9,0,21.9,0l0-9h-53.2l0.1,9.1
		C366.8,9.2,380.9,9.2,388.2,9.2z"/>
	<path d="M440.7,49.8c0,0,6.5,0,9.9,0c0-6.8,0-20.3,0-20.3l34.9,0.2v20.1h9.8l0-47.5l0-2.3h-9.9l0,2.6l0,14.9c0,0.5,0,1.4,0,2v0.7
		h-34.8l0-2.5l0-15.1l0-2.6h-9.9l0,2.6l0,44.8V49.8z"/>
	<path d="M595.1,181.9c-5.2-2.2-10.3-4.4-15.5-6.4c-9.9-3.8-20.1-6.3-30.7-7.1c-12.1-0.9-24,0.4-35.8,2.7c-11,2.1-21.7,5.2-32.4,8.6
		c-0.9,0.3-1.8,0.5-3.3,0.9c1.5-2.9,2.7-5.1,3.8-7.5c0.6-1.3,1.5-1.8,3-1.9c7.7-0.4,15.2-2.2,22.7-3.7c1.6-0.3,2.2-1.4,2-2.8
		c-0.2-1.2-1.2-2-2.7-1.9c-0.9,0.1-1.7,0.3-2.6,0.4c-2.4,0.5-4.8,1.1-7.3,1.5c-3.4,0.6-6.9,1.1-10.3,1.6c-0.1-0.2-0.2-0.3-0.3-0.5
		c1.5-2.1,2.9-4.1,4.5-6.1c0.3-0.4,1-0.5,1.5-0.5c8.7-1,17.5-1.9,26.2-3c2.1-0.3,4.3-0.6,6.4-0.9c1-0.2,1.8-0.8,2-1.8
		c0.2-0.9,0-1.9-0.8-2.3c-0.7-0.4-1.7-0.5-2.5-0.4c-6.4,0.8-12.8,1.7-19.3,2.6c-2.9,0.4-5.8,0.6-8.7,0.9c0.8-1.7,2-2.9,2.9-4.3
		c1.6-2.3,3.5-3.6,6.4-3.1c1.1,0.2,2.2,0,3.3-0.1c8.9-1,17.8-2,26.7-3c1.3-0.1,2.7-0.3,4-0.7c1.2-0.3,1.9-1.5,1.6-2.6
		c-0.3-1.1-1-1.8-2.2-1.9c-0.6,0-1.3,0-1.9,0.1c-7.1,0.9-14.3,1.8-21.4,2.6c-3,0.3-6,0.5-8.9,0.7c-0.1-0.2-0.2-0.4-0.3-0.6
		c2.3-2.3,4.6-4.6,7-6.8c0.4-0.4,1.2-0.4,1.8-0.4c10.7,0.4,21.4-0.5,32.1-1.6c2.9-0.3,5.7-0.7,8.5-1.2c1.8-0.3,2.5-1.3,2.3-2.7
		c-0.2-1.4-1.2-2.1-3.1-1.9c-3.7,0.4-7.5,1-11.2,1.3c-7.3,0.6-14.7,0.9-22,1.4c-0.6,0-1.3-0.1-2.5-0.2c2.4-1.7,4.3-3.1,6.1-4.5
		c1.3-1,2.6-1.3,4.2-1.3c8.7,0.2,17.3,0.1,25.8-1.4c3.8-0.6,7.6-1.7,11.4-2.8c2-0.6,2.7-1.9,2.1-3.3c-0.5-1.3-1.8-1.7-3.6-1.1
		c-1,0.3-2,0.7-3,1c-8.3,2.2-16.8,2.8-25.4,2.9c-0.2,0-0.3-0.2-0.7-0.4c0.6-0.4,1.1-0.7,1.6-0.9c9.1-4.3,18.4-7.8,28.7-7.9
		c1.7,0,2.7-1,2.6-2.5c-0.1-1.4-0.9-2.3-2.6-2.2c-2.8,0.1-5.6,0.3-8.3,0.8c-10,1.8-19.3,5.6-28.1,10.7c-12,6.8-22.1,15.8-31,26.2
		c-7.3,8.4-14.2,17.1-19.9,26.7c-1.4,2.3-2.6,4.7-3.9,7.1c-0.2-0.1-0.4-0.1-0.4-0.3c-0.6-1.2-1.3-2.4-1.9-3.6
		c-4.7-8.5-10.4-16.3-16.6-23.8c-7.2-8.7-14.7-17.1-23.7-24c-12.1-9.3-25.4-16-40.5-19c-2.8-0.5-5.7-0.7-8.6-0.8
		c-1.8-0.1-3,1.5-2.4,3c0.4,1.2,1.4,1.7,2.6,1.7c1.7,0.1,3.4,0.1,5,0.3c8.3,1.2,16.1,4,23.6,7.7c0.5,0.2,0.9,0.6,1.8,1.1
		c-0.8,0.1-1,0.2-1.3,0.2c-9.5-0.2-19-0.8-28.1-3.9c-0.1-0.1-0.3-0.1-0.5-0.2c-1.4-0.4-2.6,0.2-3.1,1.5c-0.4,1.2,0.1,2.4,1.5,2.9
		c2.3,0.8,4.5,1.6,6.9,2.1c9,2,18.1,2.7,27.2,2.3c4.9-0.2,8.7,1.1,12.1,4.3c0.5,0.5,1.4,0.7,1.5,1.7c-0.6,0-1.1,0.1-1.6,0.1
		c-9-0.6-18-1.2-27-1.9c-2.3-0.2-4.6-0.6-6.9-0.9c-1.5-0.2-2.6,0.7-2.8,2c-0.2,1.2,0.6,2.2,2,2.6c0.5,0.1,0.9,0.2,1.4,0.3
		c12.4,1.6,24.8,2.9,37.3,2.5c3-0.1,5,0.7,6.8,2.9c1.3,1.6,2.9,2.8,4.4,4.7c-1.3,0-2.3,0.1-3.2,0c-7.8-0.9-15.6-1.8-23.4-2.6
		c-1.9-0.2-3.8-0.5-5.7-0.7c-1.5-0.1-2.4,0.7-2.5,2c-0.1,1.3,0.5,2.2,1.9,2.6c0.4,0.1,0.8,0.1,1.2,0.2c11.7,1.5,23.3,3.3,35.1,3.5
		c0.5,0,1.2,0.1,1.5,0.5c1.9,2.1,3.7,4.3,5.7,6.7c-1,0-1.4,0.1-1.9,0c-8.6-1.1-17.3-2.1-25.9-3.2c-0.6-0.1-1.3-0.2-1.9-0.2
		c-1.1,0.1-1.9,0.9-2.1,2c-0.2,1.1,0.4,2.1,1.4,2.5c0.4,0.2,0.9,0.2,1.4,0.3c10.5,1.3,21,2.5,31.4,3.8c0.6,0.1,1.5,0.1,1.8,0.4
		c1.7,2,3.2,4.1,4.7,6.5c-0.7,0-1,0.1-1.3,0c-5.4-0.9-10.9-1.9-16.3-2.9c-1-0.2-2-0.4-3.1-0.5c-1.4-0.1-2.4,0.7-2.6,1.9
		c-0.2,1.2,0.5,2.3,1.9,2.7c0.3,0.1,0.6,0.1,0.9,0.2c7.5,1.6,15,3.2,22.7,3.7c0.5,0,1.2,0.3,1.4,0.6c1.6,2.6,3.1,5.3,4.2,8.2
		c-0.4,0.1-0.6,0.2-0.7,0.2c-0.8-0.2-1.5-0.4-2.3-0.7c-16-5.1-32.2-9.4-49-11c-10.5-1-20.9-0.6-31.3,1.4c-11.9,2.3-22.9,7-33.9,11.8
		c-1.6,0.7-2.2,1.9-1.7,3.2c0.5,1.3,1.8,1.8,3.4,1.2c2.2-0.9,4.4-1.8,6.6-2.8c7.6-3.3,15.4-6.2,23.5-8.1c0.4-0.1,0.9-0.1,1.7-0.1
		c-0.5,0.4-0.6,0.6-0.8,0.7c-7,3.8-14.1,7.5-21.2,11.3c-1.8,0.9-2.4,1.9-1.9,3.3c0.5,1.4,1.9,1.8,3.9,1c1.3-0.5,2.5-1.1,3.7-1.7
		c8.1-4.4,16.3-8.9,24.4-13.4c6.9-3.8,6.9-3.9,14.7-3.6c0.8,0,1.6,0.1,2.4,0.1c0.5,0.1,1,0.2,1.5,0.3c-0.1,0.3-0.2,0.3-0.2,0.4
		c-9.5,4.8-18.9,9.8-28.8,13.6c-0.2,0.1-0.5,0.1-0.7,0.3c-1.2,0.6-1.8,1.6-1.5,2.7c0.3,1.2,1.3,1.9,2.7,1.8c0.6-0.1,1.3-0.3,1.9-0.5
		c1.8-0.7,3.6-1.4,5.3-2.2c9.7-4.7,19.4-9.5,29.1-14.3c0.8-0.4,1.8-1,2.6-0.9c3.5,0.4,7,1,10.5,1.5c-0.5,0.8-1.1,1.2-1.7,1.5
		c-7.1,3.2-14.1,6.4-21.2,9.6c-0.7,0.3-1.4,0.5-2,0.9c-1.1,0.6-1.5,1.8-1.1,2.9c0.4,1.1,1.5,1.7,2.7,1.4c0.6-0.1,1.2-0.4,1.8-0.6
		c9.4-4.4,18.8-8.8,28.2-13.2c0.5-0.2,1.1-0.6,1.5-0.5c1.7,0.3,3.4,0.8,5.5,1.4c-0.8,0.5-1.2,0.9-1.7,1.1c-5,2.4-10.1,4.9-15.1,7.3
		c-1.8,0.8-2.4,2.5-1.4,3.8c0.8,0.9,1.8,1.1,2.8,0.7c1.4-0.5,2.9-1,4.2-1.7c5.5-2.8,10.9-5.7,16.4-8.5c0.7-0.3,1.6-0.8,2.2-0.6
		c3.5,1,7,2.1,11,3.3c-1.3,0.6-2.1,0.9-2.9,1.3c-10.2,4.4-19.8,9.8-28.6,16.5c-11,8.3-20,18.3-26.7,30.4
		c-6.9,12.6-12.4,25.8-16.4,39.6c-0.3,1-0.6,2-0.8,3c-0.2,1.2,0.5,2.3,1.6,2.6c1.2,0.4,2.4-0.1,3-1.4c0.2-0.5,0.3-1.1,0.5-1.6
		c3.2-11.7,7.6-22.9,13.1-33.7c0.3-0.5,0.6-1,0.9-1.7c0.2,0.3,0.3,0.4,0.2,0.4c-0.9,7.6-2.2,15.2-5.1,22.4c-0.2,0.5-0.4,1-0.5,1.6
		c-0.1,1.1,0.4,1.9,1.4,2.3c1,0.4,1.9,0.2,2.6-0.6c0.4-0.4,0.6-0.9,0.8-1.4c0.7-1.9,1.5-3.7,2-5.6c2.5-8.8,3.8-17.8,4.3-26.9
		c0.1-1.9,0.5-3.6,1.8-5.1c2.1-2.5,4.1-5.1,6.1-7.7c0.4-0.5,0.9-0.8,1.4-1.3c0.1,0.4,0.2,0.5,0.1,0.7c-1.2,8.8-2.4,17.6-3.6,26.4
		c-0.2,1.7,0.3,2.9,1.6,3.2c1.4,0.3,2.5-0.4,3-2.1c0.2-0.8,0.4-1.6,0.5-2.3c1.1-8.2,2.1-16.5,3.2-24.7c0.3-2.4-0.2-5.2,1.3-7.2
		c1.5-2,3.8-3.4,5.8-4.9c0.4-0.4,1-0.6,1.8-1.1c-0.4,3.3-0.7,6.2-1.1,9c-0.9,6.2-1.8,12.3-3.9,18.3c0,0.1-0.1,0.3-0.1,0.4
		c-0.3,1.2,0.2,2.3,1.2,2.8c1.1,0.5,2.5,0.1,3.1-1.1c0.7-1.6,1.3-3.3,1.6-5c2-8.8,3.6-17.7,4-26.8c0-0.6,0.2-1.4,0.6-1.7
		c2.5-1.7,5.1-3.2,7.9-4.9c0,1.1,0.1,1.8,0,2.4c-1.3,7.2-2.6,14.5-4,21.7c-0.1,0.6-0.3,1.1-0.4,1.6c-0.1,1.4,0.6,2.4,1.9,2.7
		c1.1,0.2,2.1-0.4,2.6-1.6c0.4-1,0.7-2,0.8-3c1.5-8.3,2.9-16.7,4.3-25c0.2-1.1,0.5-1.9,1.6-2.4c3.6-1.6,7.2-3.2,10.8-4.7
		c0.4-0.2,0.9-0.2,1.4-0.3c-0.2,2.5-0.3,4.8-0.5,7.1c-0.7,10-1.5,19.9-2.3,29.9c-0.7,9.3-1.4,18.7-2.1,28c-0.7,10-1.5,19.9-2.3,29.9
		c-0.7,9.3-1.4,18.7-2.1,28c-0.7,10-1.5,19.9-2.3,29.9c-0.7,9.3-1.4,18.7-2.1,28c-0.8,10-1.5,20.1-2.3,30.1
		c-0.5,7.3-1.1,14.5-1.6,21.8c-0.7,9.4-1.5,18.8-2.1,28.2c-0.2,3,0.5,3.7,3.5,3.7c12.4,0,24.8,0,37.2,0c3.1,0,3.7-0.7,3.5-3.7
		c-0.5-6.6-1-13.2-1.5-19.9c-1.1-14.9-2.2-29.8-3.3-44.7c-1.3-17.2-2.6-34.5-3.8-51.7c-1.1-15-2.2-30-3.4-45c-1.1-15-2.2-30-3.4-45
		c-1.3-17.2-2.6-34.4-3.8-51.7c-0.1-1,0-2,0-3.2c0.8,0.3,1.4,0.4,2,0.7c3.2,1.4,6.4,2.9,9.7,4.2c1.4,0.6,1.9,1.5,2.1,2.9
		c0.5,3.7,0.9,7.5,1.6,11.1c1,5.3,2.1,10.6,3.3,15.9c0.4,1.8,1.6,2.5,2.9,2.2c1.4-0.3,2-1.6,1.7-3.4c-1.3-6.7-2.6-13.3-3.9-20
		c-0.3-1.5-0.4-3.1-0.6-5.1c2.8,1.7,5,3.1,7.4,4.5c1,0.6,1.3,1.4,1.4,2.5c0.5,9.4,2,18.8,4.3,27.9c0.3,1.2,0.7,2.3,1.2,3.4
		c0.6,1.3,1.8,1.8,3,1.4c1.3-0.4,1.8-1.6,1.4-3.2c-0.4-1.4-1-2.7-1.3-4.1c-1-5.2-2-10.4-2.9-15.6c-0.4-2.5-0.6-5-0.8-7.5
		c0.2-0.1,0.3-0.2,0.5-0.2c2,1.6,3.9,3.2,5.9,4.7c1.3,1,1.8,2.2,2,3.8c1.1,9.4,2.2,18.9,3.4,28.3c0.2,1.3,0.5,2.5,0.9,3.7
		c0.5,1.4,1.5,1.9,2.8,1.6c1.2-0.3,1.9-1.3,1.7-2.8c-0.1-0.9-0.5-1.9-0.6-2.8c-0.8-5.9-1.6-11.7-2.3-17.6c-0.3-2.2-0.4-4.5-0.7-7.2
		c0.7,0.5,1,0.7,1.1,0.9c2.5,3.1,5,6.2,7.4,9.4c0.5,0.7,0.7,1.8,0.8,2.7c0.6,7.3,1.4,14.5,2.9,21.6c0.9,4.3,2,8.6,3.8,12.6
		c0.8,1.6,2,2.1,3.3,1.6c1.3-0.6,1.8-1.9,1.1-3.4c-1.8-4-2.8-8.1-3.7-12.4c-0.7-3.5-1.2-7-1.8-10.6c0.8,0.4,1.1,0.9,1.4,1.4
		c5.5,10.8,9.8,22,13.1,33.7c0.2,0.6,0.3,1.3,0.6,1.8c0.5,1.1,1.5,1.4,2.6,1.2c1.1-0.2,1.8-1.1,1.7-2.3c0-0.7-0.2-1.4-0.4-2.1
		c-4-14.4-9.7-28.1-16.9-41.2c-6.3-11.4-14.8-21-25.1-29c-9.3-7.2-19.4-13-30.2-17.6c-0.8-0.3-1.5-0.7-2.8-1.3c3.6-1.1,6.7-2,9.7-3
		c1.4-0.5,2.5-0.3,3.8,0.4c5.8,3.1,11.6,6.1,17.5,9c1.1,0.6,2.4,0.9,3.6,1.1c1.2,0.2,2.2-0.6,2.4-1.8c0.2-1.1-0.2-2-1.3-2.6
		c-0.4-0.2-0.9-0.3-1.3-0.5c-5.4-2.2-10.5-5-16.1-8c1.8-0.5,3.2-0.8,4.5-1.2c1-0.3,1.8-0.1,2.7,0.3c9.5,4.5,19,8.9,28.5,13.3
		c0.5,0.2,1,0.4,1.6,0.5c1.2,0.2,2.3-0.4,2.7-1.5c0.3-1,0-2.1-1-2.7c-0.5-0.3-1.2-0.5-1.7-0.8c-7.1-3.2-14.1-6.4-21.2-9.6
		c-0.7-0.3-1.4-0.7-2-1.1c0-0.2,0.1-0.3,0.1-0.5c2.9-0.5,5.8-1,8.7-1.5c1.6-0.3,3.1,0.1,4.6,0.8c10.3,5.1,20.7,10.2,31,15.2
		c1.4,0.7,3,1.2,4.5,1.6c1.6,0.4,2.7-0.2,3.1-1.4c0.5-1.4-0.2-2.5-1.8-3.1c-2.9-1.2-5.8-2.2-8.6-3.6c-6.4-3.1-12.8-6.2-19.2-9.4
		c-0.5-0.3-1-0.6-1.9-1.2c4-0.5,7.5-0.4,11-0.3c1.5,0.1,2.8,0.5,4.1,1.2c9.4,5.3,18.9,10.4,28.4,15.6c1.3,0.7,2.7,1.4,4.1,1.9
		c1.7,0.6,2.8,0.2,3.4-1.2c0.6-1.3,0-2.4-1.6-3.2c-6.9-3.6-13.7-7.2-20.6-10.9c-0.5-0.3-1-0.7-1.5-1c0.6-0.3,1-0.2,1.3-0.1
		c7.4,1.7,14.6,4.2,21.6,7.2c2.3,1,4.5,2,6.8,2.9c0.7,0.3,1.3,0.6,2,0.8c1.5,0.5,2.8,0.1,3.3-1.1
		C597.1,183.9,596.6,182.6,595.1,181.9z M473.7,219.3c0.1,0,0.3,0,0.5,0c0.6,7.8,1.1,15.5,1.7,23.4c-1.4,0-2.6,0-3.9,0
		C472.5,234.8,473.1,227,473.7,219.3z M491.1,447.7c-11.6,0-23,0-34.5,0c0.3-4.6,0.7-9.1,1-13.7c10.9,0,21.5,0,32.5,0
		C490.4,438.5,490.8,443,491.1,447.7z M489.7,429c-10.7,0-21.1,0-31.7,0c0.4-5.3,0.8-10.4,1.2-15.7c9.9,0,19.5,0,29.4,0
		C489,418.5,489.4,423.6,489.7,429z M488.2,408c-1.8,0.5-25,0.7-28.6,0.2c0.4-5.1,0.7-10.3,1.1-15.6c8.8,0,17.4,0,26.3,0
		C487.4,397.9,487.8,402.9,488.2,408z M486.6,387.2c-1.8,0.6-21.3,0.8-25.1,0.3c-0.5-1.9,0.2-12.2,1-15.7c7.5,0,15.1,0,22.9,0
		C485.9,377,486.3,382.1,486.6,387.2z M483.9,351.1c0.4,5.2,0.8,10.3,1.2,15.4c-1.8,0.6-19.5,0.7-22.4,0.1
		c0.4-5.1,0.8-10.2,1.2-15.5C470.5,351.1,477,351.1,483.9,351.1z M483.6,346.1c-6.5,0.2-12.8,0.1-19.4,0.1
		c0.4-5.5,0.8-10.6,1.2-15.8c5.7,0,11.2,0,17,0C482.8,335.5,483.2,340.7,483.6,346.1z M480.8,309.8c0.4,5.1,0.8,10.2,1.2,15.3
		c-1.8,0.5-13,0.6-16.3,0.2c0.4-5.2,0.8-10.3,1.2-15.5C471.5,309.8,476,309.8,480.8,309.8z M480.5,304.7c-4.5,0-8.7,0-13.2,0
		c0.4-5.3,0.8-10.4,1.1-15.6c3.7,0,7.2,0,10.9,0C479.7,294.3,480.1,299.4,480.5,304.7z M478.9,284c-3.5,0-6.6,0-10.1,0
		c0.4-5.3,0.8-10.4,1.2-15.6c2.6,0,5,0,7.8,0C478.1,273.5,478.5,278.7,478.9,284z M477.4,263.3c-2.4,0-4.5,0-6.9,0
		c0-5.1,0.8-10.2,1-15.7c1.7,0,3.1,0,4.7,0C476.6,252.9,477,258,477.4,263.3z"/>
	<path d="M840.3,243.6c0.5-1.3,0-2.4-1.6-3.2c-6.9-3.6-13.8-7.3-20.8-11c-0.5-0.3-1-0.7-1.5-1c1.1-0.1,2,0.1,3,0.4
		c8.4,2,16.3,5.1,24.1,8.6c1.8,0.8,3.5,1.5,5.3,2.1c1.3,0.4,2.4-0.3,2.9-1.5c0.4-1.1-0.1-2.1-1.2-2.8c-0.2-0.1-0.4-0.2-0.7-0.3
		c-4.5-1.9-9-3.8-13.5-5.6c-12.8-5.1-26.1-8-40-8c-11.6,0-23,1.5-34.2,4.2c-9,2.2-17.9,4.9-26.8,7.4c-0.8,0.2-1.5,0.8-2.7,0.1
		c1.4-2.6,2.7-5.1,4-7.7c0.4-0.9,1.2-1,2-1c7.7-0.3,15.2-2.2,22.7-3.6c0.4-0.1,0.8-0.2,1.1-0.4c1-0.5,1.4-1.3,1.3-2.3
		c-0.1-1.1-0.9-1.9-2-2c-0.9,0-1.8,0.1-2.6,0.3c-4.2,0.8-8.3,1.7-12.5,2.4c-1.9,0.4-3.9,0.5-5.8,0.8c-0.1-0.1-0.2-0.3-0.3-0.5
		c1.4-2,2.8-4,4.3-6c0.3-0.4,1.1-0.6,1.7-0.7c3.9-0.4,7.8-0.7,11.7-1.1c6.6-0.8,13.2-1.7,19.7-2.6c2.3-0.3,3.3-1.3,3.2-2.8
		c-0.2-1.6-1.4-2.2-3.7-1.9c-7.1,0.9-14.1,1.8-21.2,2.7c-2.2,0.3-4.3,0.4-6.5,0.6c1.5-2.5,3.2-4.6,5-6.6c0.4-0.4,1.1-0.6,1.7-0.6
		c8.5-0.8,17-1.5,25.5-2.3c3.4-0.3,6.8-0.9,10.2-1.4c1.8-0.3,2.6-1.2,2.5-2.6c-0.1-1.5-1.3-2.3-3.2-2.1c-2.6,0.3-5.2,0.8-7.8,1.1
		c-7.3,0.8-14.6,1.5-21.9,2.3c-0.5,0.1-1-0.1-1.9-0.2c1.8-1.8,3.3-3.3,4.8-4.9c1.7-1.9,3.5-3.1,6.2-2.4c0.6,0.2,1.3,0.1,1.9,0
		c8.5-0.5,16.9-0.9,25.4-1.5c3.7-0.3,7.5-0.9,11.2-1.4c1.7-0.3,2.6-1.4,2.5-2.7c-0.2-1.4-1.3-2.1-3-2c-1.1,0.1-2.2,0.4-3.3,0.5
		c-8.8,0.8-17.7,1.5-26.5,2.2c-1.8,0.1-3.6,0-5.4,0c-0.2-0.2-0.3-0.4-0.5-0.7c0.4-0.2,0.9-0.3,1.3-0.6c1.8-1.3,3.7-2.6,5.4-3.9
		c0.9-0.7,1.8-0.9,2.9-0.9c2.7,0.1,5.4,0.1,8.2,0.1c8.2,0,16.3-0.6,24.3-2.5c2.1-0.5,4.2-1.2,6.2-1.9c1.4-0.5,1.8-1.7,1.4-2.9
		c-0.4-1.2-1.4-1.8-2.9-1.5c-0.2,0-0.5,0.1-0.7,0.2c-9,3.1-18.3,3.7-27.7,3.9c-0.4,0-0.8-0.1-1.5-0.3c0.6-0.4,0.8-0.6,1.1-0.7
		c6.7-3.3,13.6-6,21-7.3c2.7-0.5,5.5-0.6,8.3-0.9c1.5-0.1,2.5-1.1,2.5-2.4c0-1.2-0.9-2.1-2.3-2.4c-0.6-0.1-1.3-0.1-1.9-0.1
		c-2,0.2-4,0.4-6,0.7c-11.7,2.1-22.3,6.6-32.3,12.8c-10.7,6.6-19.8,15.1-28,24.6c-8.8,10.2-17.1,20.7-23.1,32.9
		c-0.1,0.2-0.3,0.3-0.5,0.6c-0.2-0.3-0.4-0.5-0.5-0.8c-9.4-17.9-22-33.3-37-46.8c-12-10.8-25.9-18.4-41.7-22.3c-4-1-8-1.8-12.1-1.6
		c-1.8,0.1-2.7,1-2.7,2.4c0,1.4,0.9,2.2,2.7,2.3c1.4,0.1,2.9,0.1,4.3,0.3c8.4,1.1,16.3,3.9,23.9,7.6c0.5,0.3,1,0.6,2.1,1.2
		c-1.1,0.1-1.6,0.2-2.1,0.2c-4.2-0.2-8.3-0.3-12.5-0.7c-5-0.5-10-1.3-14.7-3.1c-0.4-0.2-0.9-0.3-1.4-0.3c-1,0-1.9,0.5-2.2,1.5
		c-0.3,1-0.2,2,0.7,2.6c0.6,0.4,1.3,0.7,1.9,0.9c3.3,0.8,6.5,1.8,9.8,2.4c8.7,1.6,17.5,1.7,26.3,1.5c2-0.1,3.7,0.4,5.3,1.6
		c1.7,1.4,3.5,2.6,5.3,3.9c-0.1,0.2-0.1,0.4-0.2,0.6c-0.6,0-1.2,0-1.8,0c-10.7-0.3-21.4-1.1-32-2.6c-0.7-0.1-1.4-0.2-2.1-0.2
		c-1.2,0-2,0.7-2.2,1.8c-0.2,1.2,0.3,2.2,1.5,2.7c0.5,0.2,1.1,0.3,1.6,0.4c7.7,0.8,15.4,1.7,23.2,2.3c5.6,0.4,11.2,0.2,16.8,0.2
		c1,0,1.7,0.3,2.3,1c1.8,1.8,3.6,3.6,5.4,5.4c0.3,0.3,0.4,0.7,0.7,1.2c-0.5,0-0.9,0.1-1.2,0.1c-6.1-0.6-12.3-1.1-18.4-1.8
		c-4-0.4-7.9-1.1-11.9-1.6c-1.7-0.2-2.9,0.6-3.1,1.9c-0.2,1.4,0.7,2.4,2.4,2.7c0.2,0,0.5,0.1,0.7,0.1c11.6,1.6,23.3,3.1,35.1,3.6
		c0.6,0,1.4,0.1,1.7,0.5c1.8,2.1,3.6,4.2,5.7,6.7c-0.9,0-1.3,0-1.6,0c-7.1-0.9-14.1-1.7-21.2-2.6c-2.1-0.3-4.3-0.6-6.4-0.9
		c-1.4-0.1-2.4,0.6-2.7,1.9c-0.2,1.2,0.4,2.3,1.8,2.7c0.7,0.2,1.4,0.3,2.1,0.4c10.2,1.2,20.3,2.3,30.5,3.5c0.6,0.1,1.4,0.2,1.7,0.6
		c1.6,2,3,4.1,4.8,6.6c-1.5-0.1-2.3-0.2-3.1-0.3c-5.2-0.9-10.4-1.9-15.6-2.8c-0.9-0.2-1.7-0.3-2.6-0.3c-1.2,0-2,0.8-2.2,1.9
		c-0.2,1.2,0.3,2.2,1.5,2.6c0.3,0.1,0.6,0.2,0.9,0.2c7.5,1.4,15,3.3,22.7,3.6c0.6,0,1.4,0.3,1.7,0.7c1.6,2.6,3.2,5.3,4.3,8.6
		c-1.5-0.4-2.5-0.7-3.6-1.1c-16.6-5.3-33.3-9.7-50.7-11c-9.5-0.7-18.8-0.3-28.2,1.4c-12.2,2.2-23.5,7.1-34.8,11.9
		c-1.5,0.7-2.1,1.9-1.6,3.2c0.5,1.3,1.8,1.7,3.4,1.1c1.6-0.6,3.1-1.3,4.7-1.9c6.3-2.4,12.5-4.9,18.8-7.1c2.7-0.9,5.5-1.5,8.2-2.2
		c-0.2,0.6-0.5,0.9-0.8,1c-7,3.8-14.1,7.5-21.2,11.3c-1.8,0.9-2.4,2-1.8,3.3s1.9,1.8,3.7,1c1.3-0.5,2.5-1.1,3.7-1.7
		c7.5-4.1,15-8.2,22.5-12.3c2.9-1.6,5.8-3.7,8.9-4.4c3.3-0.8,6.8-0.2,10.3-0.2c0.5,0,0.9,0.2,1.5,0.3c-0.2,0.3-0.3,0.3-0.3,0.4
		c-9.5,4.9-18.9,9.8-28.8,13.6c-1.8,0.7-2.5,1.7-2.1,3.1c0.4,1.4,1.7,1.9,3.6,1.3c1.5-0.4,2.9-0.9,4.3-1.6
		c9.6-4.7,19.3-9.3,28.9-14.1c4.4-2.2,4.4-2.3,9.3-1.4c2,0.4,4,0.7,6.1,1.1c-0.7,0.8-1.3,1.2-2,1.5c-7.1,3.2-14.1,6.4-21.2,9.6
		c-0.6,0.3-1.2,0.4-1.8,0.8c-1.1,0.7-1.5,1.8-1,2.9c0.5,1.1,1.5,1.6,2.7,1.4c0.6-0.1,1.2-0.4,1.8-0.7c9.4-4.4,18.8-8.8,28.3-13.2
		c0.5-0.3,1.2-0.5,1.8-0.4c1.6,0.3,3.2,0.8,5.2,1.3c-0.8,0.5-1.2,0.9-1.7,1.1c-5,2.4-10.1,4.9-15.1,7.3c-1.5,0.7-2.2,1.7-1.8,2.9
		c0.4,1.4,1.6,2.1,3.2,1.6c1.5-0.4,3-1,4.5-1.7c5.4-2.8,10.8-5.6,16.2-8.4c0.7-0.3,1.5-0.8,2.2-0.6c3.5,0.9,7,2,11,3.3
		c-1.2,0.6-1.9,0.9-2.6,1.2c-8.2,3.6-16.1,7.8-23.6,12.8c-11.9,8.1-22.2,17.8-29.7,30.3c-8.4,14.1-14.7,29.1-19.1,44.9
		c-0.2,0.7-0.3,1.4-0.3,2.1c0,1.1,0.6,1.8,1.6,2.1c1.1,0.3,2.2-0.1,2.7-1.1c0.3-0.6,0.5-1.4,0.7-2c3.3-11.6,7.6-22.7,13-33.5
		c0.3-0.5,0.6-1,1-1.6c-0.7,7.9-1.8,15.6-4.9,22.8c-0.2,0.4-0.4,0.9-0.4,1.4c-0.1,1.8,1.7,3.1,3.2,2.3c0.6-0.3,1.2-1.1,1.5-1.8
		c0.9-2.2,1.8-4.5,2.4-6.8c2.5-8.9,3.6-18,4.2-27.2c0.1-1.2,0.4-2.2,1.1-3.1c2.3-3,4.7-5.9,7-8.8c0.3-0.3,0.7-0.5,1.3-1
		c-0.2,2.2-0.4,4-0.6,5.9c-1,7-1.9,14.1-3,21.1c-0.3,1.8,0.1,2.9,1.5,3.3c1.3,0.4,2.4-0.3,3-2c0.1-0.4,0.3-0.8,0.3-1.1
		c0.3-1.9,0.7-3.8,1-5.7c1-8.6,2-17.1,3-25.7c0.1-0.6,0.2-1.4,0.6-1.8c2.2-2.1,4.6-4.1,7.6-6c-0.1,1.3,0,2.2-0.2,3.1
		c-1,8.1-2,16.2-4.6,24c-0.6,1.7-0.1,3,1.2,3.4c1.3,0.5,2.6-0.1,3.2-1.7c0.5-1.2,0.9-2.4,1.2-3.6c2.2-9,3.6-18,4.2-27.2
		c0-0.7,0.1-1.6,0.6-1.9c2.5-1.7,5.2-3.3,8-5c0,0.8,0,1.2,0,1.6c-1.2,7.9-2.3,15.8-4.4,23.6c-0.5,1.7,0.2,2.9,1.5,3.3
		c1.4,0.4,2.5-0.3,3-2c0.6-1.9,1.1-3.9,1.4-5.8c1.2-7,2.4-14,3.4-21.1c0.3-1.7,0.8-2.7,2.4-3.4c3-1.2,5.8-2.6,8.8-3.9
		c0.8-0.3,1.6-0.6,2.6-1c0,0.9,0,1.5,0,2.2c-0.3,4.9-0.7,9.9-1.1,14.8c-0.7,10-1.5,19.9-2.2,29.9c-0.7,9.7-1.4,19.5-2.1,29.2
		c-0.9,12-1.8,24.1-2.7,36.1c-0.7,9.8-1.4,19.6-2.1,29.4c-0.9,12-1.8,24.1-2.7,36.1c-0.7,10.1-1.4,20.3-2.2,30.4
		c-0.2,2.8,0.5,3.7,3.3,3.7c9.7,0,19.4,0,29,0c2.8,0,3.5-0.8,3.3-3.6c-0.5-6.9-1-13.9-1.5-20.8c-0.8-10.3-1.5-20.6-2.3-30.9
		c-0.7-9.5-1.4-19-2.1-28.5c-0.7-10-1.5-19.9-2.2-29.9c-0.7-9.7-1.4-19.5-2.1-29.2c-0.9-12-1.8-24.1-2.7-36.1
		c-0.8-10.3-1.5-20.6-2.2-30.9c0-0.5,0-1.1,0-1.9c0.7,0.2,1.3,0.3,1.9,0.6c3.3,1.4,6.6,2.9,9.9,4.3c1.3,0.6,1.8,1.4,2,2.9
		c1,7.1,2.2,14.2,3.4,21.3c0.3,2,0.9,3.9,1.4,5.8c0.5,1.7,1.6,2.4,3,2.1c1.4-0.3,2-1.6,1.6-3.5c-1.2-5.9-2.4-11.7-3.5-17.6
		c-0.4-2.3-0.6-4.6-1-7.5c2.8,1.7,5.1,3.1,7.4,4.5c1,0.6,1.4,1.3,1.4,2.5c0.2,7.9,1.6,15.6,3.2,23.3c0.5,2.6,1.3,5.3,2.2,7.8
		c0.5,1.5,1.8,1.9,3.1,1.5c1.2-0.4,1.8-1.6,1.3-3.1c-2.7-8-3.6-16.4-4.7-24.7c-0.1-0.8,0-1.6,0-2.9c2.5,2,4.5,3.8,6.7,5.4
		c1,0.7,1.3,1.6,1.5,2.8c1,9.2,2.2,18.4,3.3,27.6c0.2,1.7,0.5,3.3,1,4.9c0.4,1.5,1.7,2.1,2.9,1.8c1.3-0.4,1.8-1.5,1.6-3
		c-1.1-7.3-2.1-14.5-3.1-21.8c-0.2-1.7-0.3-3.4-0.5-5.7c0.9,0.8,1.4,1.3,1.8,1.8c2,2.4,3.9,4.9,5.8,7.3c1.3,1.6,1.8,3.3,1.9,5.3
		c0.4,7.3,1.3,14.5,3,21.6c0.9,3.8,2.2,7.5,3.5,11.2c0.6,1.8,2,2.3,3.4,1.7c1.3-0.6,1.7-1.9,1-3.5c-2.3-5.3-3.4-11-4.5-16.6
		c-0.4-2.1-0.6-4.2-0.9-6.7c0.5,0.4,0.6,0.5,0.7,0.6c0.3,0.6,0.6,1.1,0.9,1.7c5.3,10.6,9.6,21.6,12.8,33c0.2,0.6,0.3,1.3,0.5,1.8
		c0.5,1.2,1.8,1.7,3,1.3c1.1-0.4,1.7-1.4,1.5-2.7c-0.1-0.7-0.3-1.4-0.5-2.1c-3.6-12.8-8.6-25.1-14.7-36.9c-8-15.8-19.7-28.3-34.4-38
		c-7.3-4.9-15.1-9-23.2-12.5c-0.7-0.3-1.4-0.6-2.5-1.2c3.5-1.1,6.6-2,9.6-3c1.4-0.5,2.5-0.3,3.8,0.4c5.8,3.1,11.6,6.1,17.5,9
		c0.9,0.5,1.9,0.8,2.9,1.1c1.5,0.4,2.7-0.2,3.1-1.4c0.4-1.3-0.2-2.4-1.7-3c-0.3-0.1-0.6-0.2-0.9-0.3c-5.4-2.2-10.5-5-15.6-8.2
		c1.5-0.4,2.9-0.8,4.4-1.1c0.7-0.1,1.6,0,2.2,0.3c9.4,4.4,18.8,8.8,28.3,13.1c0.7,0.3,1.3,0.6,2,0.7c1,0.2,1.9-0.4,2.4-1.3
		c0.5-0.9,0.2-2.2-0.6-2.8c-0.6-0.4-1.3-0.7-1.9-1c-7.1-3.2-14.1-6.4-21.2-9.6c-0.7-0.3-1.5-0.7-2.2-1.1c0-0.2,0.1-0.4,0.1-0.5
		c2.7-0.4,5.5-0.8,8.2-1.4c2.1-0.5,3.8,0.1,5.7,1c10.2,5.1,20.5,10.1,30.8,15c1.4,0.6,2.8,1.1,4.3,1.5c1.5,0.4,2.6-0.3,3-1.6
		c0.4-1.3-0.3-2.3-1.8-2.9c-1.6-0.6-3.3-1.1-4.9-1.9c-7.9-3.8-15.7-7.6-23.5-11.4c-0.4-0.2-0.7-0.5-1-0.7c3.5-0.4,7-0.4,10.4-0.4
		c1.6,0,2.9,0.4,4.3,1.2c8.9,5,17.9,9.9,26.9,14.9c1.8,1,3.7,1.9,5.6,2.7C838.5,245.4,839.8,244.9,840.3,243.6z M728.8,272.6
		c0.1,0,0.3,0,0.4,0c0.5,6.7,1,13.4,1.5,20.2c-1.2,0-2.1,0-3.3,0C727.8,286,728.3,279.3,728.8,272.6z M741.2,438.4
		c0.2,3,0.5,6.1,0.7,9.3c-8.6,0-17,0-25.9,0c0.2-3.2,0.4-6.2,0.6-9.1C718.4,438,738,437.8,741.2,438.4z M740.8,433.2
		c-8,0-15.7,0-23.4,0c-0.4-1.8,0-8.6,0.7-10.6c7.2,0,14.4,0,21.9,0C740.3,426.1,740.6,429.6,740.8,433.2z M738.9,406.9
		c0.3,3.7,0.5,7.1,0.8,10.6c-7.3,0-14.3,0-21.5,0c0.3-3.5,0.5-6.9,0.8-10.6C725.6,406.9,732.1,406.9,738.9,406.9z M738.6,402
		c-6.4,0-12.7,0-19.2,0c0.2-3.5,0.5-6.9,0.7-10.6c6,0,11.7,0,17.7,0C738,394.9,738.3,398.4,738.6,402z M736.7,375.9
		c0.3,3.6,0.5,6.9,0.7,10.2c-1.8,0.5-12.9,0.6-16.9,0.2c0.2-3.4,0.5-6.9,0.7-10.4C726.4,375.9,731.4,375.9,736.7,375.9z
		 M736.3,370.8c-5.1,0-9.8,0-14.7,0c0.3-3.6,0.5-7.1,0.8-10.7c4.4,0,8.6,0,13.1,0C735.8,363.7,736,367.1,736.3,370.8z M735.2,355.2
		c-4.1,0-8.1,0-12.4,0c0.3-3.6,0.5-7,0.8-10.5c3.6,0,7.1,0,10.9,0C734.6,348.1,734.9,351.6,735.2,355.2z M733.6,334.2
		c0.1,1.7,0.3,3.5,0.4,5.4c-3.4,0-6.6,0-10.2,0c0.3-3.6,0.5-7.1,0.8-10.6c2.9,0,5.6,0,8.5,0C733.4,330.8,733.5,332.5,733.6,334.2z
		 M732.9,324c-2.6,0-5.1,0-7.9,0c0.3-3.6,0.5-6.9,0.8-10.4c2.1,0,4.1,0,6.3,0C732.4,317,732.6,320.4,732.9,324z M731.7,308.5
		c-2,0-3.6,0-5.5,0c-0.1-3.5,0.5-7,0.6-10.6c1.4,0,2.6,0,4.1,0C731.2,301.3,731.5,304.8,731.7,308.5z"/>
	<path d="M229.9,452.6c2.1-0.1,2.9-0.9,2.9-2.9c0-1-0.1-1.9-0.2-2.9c-0.7-10-1.5-20.1-2.2-30.1c-0.5-7.5-1.1-15-1.6-22.5
		c-0.7-10-1.5-20.1-2.2-30.1c-0.6-7.5-1.1-15-1.6-22.5c-0.7-10-1.5-20.1-2.2-30.1c-0.7-9.6-1.4-19.3-2.1-29
		c-0.9-12-1.8-24.1-2.7-36.1c-0.1-1.7-0.2-3.5-0.3-5.4c0.6,0.1,0.9,0.1,1.3,0.2c3.7,1.6,7.3,3.3,11,4.8c1.2,0.5,1.3,1.4,1.5,2.4
		c1.4,8.3,2.8,16.5,4.3,24.8c0.2,1.1,0.5,2.2,0.9,3.2c0.7,1.6,2.6,2,3.8,0.8c0.9-0.8,0.7-1.9,0.5-2.9c-1.2-6-2.4-11.9-3.5-17.9
		c-0.4-2.2-0.6-4.4-1-7.2c3.1,1.9,5.7,3.4,8.2,5.1c0.4,0.3,0.6,1.1,0.6,1.7c0.3,7.7,1.6,15.3,3.1,22.8c0.6,3,1.5,5.9,2.4,8.8
		c0.5,1.4,2,1.8,3.2,1.3c1.1-0.5,1.6-1.7,1.1-3c-2.4-6.9-3.3-14.2-4.4-21.3c-0.3-1.9-0.4-3.9-0.6-5.8c0.2-0.1,0.3-0.2,0.5-0.3
		c2.1,1.7,4.3,3.5,6.5,5.2c0.9,0.7,1.2,1.5,1.3,2.6c0.9,8,1.8,16,2.8,24.1c0.3,2.8,0.9,5.5,1.5,8.3c0.4,1.7,1.6,2.5,3,2.1
		c1.4-0.4,2-1.6,1.6-3.2c-0.3-1.3-0.6-2.6-0.8-4c-1-7.4-1.9-14.8-2.8-22.1c0-0.3,0-0.5,0.1-0.8c0.2-0.1,0.4-0.3,0.6-0.4
		c0.3,0.5,0.6,1.1,1,1.6c2,2.6,4,5.1,6.1,7.7c1.1,1.4,1.6,3,1.7,4.9c0.5,8.6,1.7,17,3.9,25.3c0.7,2.6,1.7,5.2,2.7,7.7
		c0.3,0.7,1.1,1.4,1.8,1.8c0.8,0.4,1.7,0.1,2.4-0.7c0.8-0.9,0.6-1.9,0.2-2.9c-2.5-5.5-3.5-11.3-4.5-17.1c-0.3-1.8-0.5-3.5-0.7-5.5
		c0.4,0.2,0.6,0.2,0.7,0.3c0.3,0.5,0.6,1,0.8,1.5c5.2,10.5,9.5,21.3,12.6,32.6c0.2,0.8,0.4,1.6,0.7,2.3c0.5,1.1,1.7,1.5,2.8,1.2
		c1-0.3,1.7-1.3,1.6-2.4c-0.1-0.9-0.4-1.7-0.6-2.6c-3.5-12.3-8.1-24.1-14-35.4c-5.2-10.2-11.6-19.5-20-27.4
		c-11.2-10.4-24-18.2-38-24.4c-0.8-0.3-1.6-0.7-2.3-1c3.2-1.4,6.3-2.3,9.4-3.3c1.3-0.4,2.4-0.2,3.6,0.4c5.6,3,11.2,5.9,16.8,8.7
		c1.2,0.6,2.5,1.1,3.8,1.4c1.4,0.4,2.5-0.3,2.9-1.4c0.4-1.3-0.2-2.4-1.6-3.1c-5-2.4-9.9-4.7-14.9-7.1c-0.6-0.3-1.2-0.7-2.1-1.3
		c1.9-0.5,3.3-0.9,4.8-1.2c0.7-0.1,1.6,0,2.2,0.3c9.4,4.3,18.7,8.7,28,13.1c0.6,0.3,1.3,0.6,2,0.7c1.1,0.3,2.2-0.3,2.6-1.2
		c0.5-1,0.2-2.3-0.8-3c-0.5-0.4-1.1-0.6-1.7-0.8c-7.1-3.2-14.1-6.4-21.2-9.6c-0.7-0.3-1.4-0.7-2.5-1.3c0.8-0.3,1-0.5,1.3-0.5
		c3-0.5,6-1.1,9-1.4c0.9-0.1,1.9,0.2,2.7,0.6c3.3,1.6,6.5,3.4,9.8,5c7.7,3.7,15.4,7.4,23.2,11c1.1,0.5,2.4,0.9,3.6,1.2
		c1.4,0.3,2.4-0.4,2.8-1.6c0.4-1.2-0.2-2.3-1.5-2.9c-1.2-0.5-2.4-0.8-3.6-1.3c-8.4-4-16.7-8-25.1-12c-0.4-0.2-0.6-0.5-1.3-1.2
		c3.5,0,6.5,0.1,9.4,0c2.5-0.1,4.6,0.7,6.8,1.9c9.2,5.2,18.5,10.2,27.7,15.3c1.2,0.6,2.4,1.2,3.7,1.7c1.5,0.5,2.8,0,3.2-1.1
		c0.5-1.3,0-2.5-1.6-3.3c-6.9-3.6-13.9-7.3-20.8-11c-0.5-0.3-1-0.7-1.6-1c3.4,0.5,6.7,1.2,9.9,2.3c6.6,2.4,13.1,5.1,19.6,7.6
		c1,0.4,2.1,0.9,3.1,1.1c1.2,0.3,2.3-0.4,2.7-1.5c0.4-1,0-2.1-1-2.7c-0.3-0.2-0.7-0.4-1.1-0.5c-3.6-1.5-7.2-3.1-10.8-4.6
		c-13-5.4-26.5-8.8-40.7-9c-10.6-0.2-21.1,1.1-31.4,3.2c-10.8,2.1-21.2,5.3-31.7,8.5c-0.6,0.2-1.3,0.3-2.6,0.6
		c1.6-3.1,3-5.8,4.5-8.3c0.3-0.5,1.3-0.9,2-0.9c7.1-0.4,13.9-1.9,20.8-3.4c0.9-0.2,1.9-0.3,2.8-0.6c1.1-0.4,1.6-1.5,1.5-2.5
		c-0.2-1.1-1-1.9-2.1-1.9c-0.9,0-1.8,0.1-2.6,0.3c-4.2,0.8-8.3,1.7-12.5,2.4c-1.9,0.3-3.8,0.8-6.2,0.6c1.5-2.1,2.7-3.8,3.9-5.6
		c0.6-0.9,1.4-1.3,2.6-1.4c9.1-1,18.3-2,27.4-3.1c1.7-0.2,3.3-0.4,5-0.8c1.4-0.3,2.1-1.4,1.9-2.6c-0.2-1.2-1.2-2-2.6-1.9
		c-0.4,0-0.8,0.1-1.2,0.2c-7,0.9-13.9,1.8-20.9,2.7c-2.2,0.3-4.4,0.4-6.6,0.7c-0.1-0.1-0.2-0.3-0.3-0.4c1.8-2.2,3.6-4.4,5.5-6.5
		c0.3-0.3,1-0.4,1.6-0.4c5.8-0.5,11.6-0.8,17.4-1.4c6.1-0.6,12.2-1.5,18.3-2.3c1.8-0.2,2.5-1.2,2.4-2.7c-0.2-1.4-1.3-2.2-3-2
		c-1.4,0.1-2.9,0.4-4.3,0.6c-8.3,0.9-16.5,1.8-24.8,2.7c-0.8,0.1-1.5,0-2.9,0c2.2-2.2,4-3.9,5.7-5.8c1.4-1.5,2.9-2.2,4.9-1.7
		c0.8,0.2,1.6,0.1,2.4,0.1c12.1-0.1,24.1-1.1,36.1-2.7c2.3-0.3,3.3-1.4,3.1-2.9s-1.5-2.2-3.8-1.8c-10.3,1.6-20.7,2.2-31,2.7
		c-1.1,0.1-2.3,0-3.5,0c0-0.2-0.1-0.4-0.1-0.6c1.9-1.4,3.9-2.8,5.7-4.2c1.3-1,2.7-1.4,4.4-1.4c7.9,0.2,15.8,0.1,23.7-1
		c4.7-0.6,9.3-1.5,13.7-3.2c1.6-0.6,2.3-1.9,1.8-3.1c-0.5-1.3-1.7-1.8-3.4-1.3c-1.5,0.4-3,1-4.6,1.4c-7.7,1.9-15.6,2.4-23.6,2.5
		c-0.3,0-0.6-0.2-1.3-0.4c8-4.1,16-7.1,24.6-8.4c2-0.3,4.1-0.3,6.2-0.5c1.3-0.1,2.1-1,2.2-2.1c0.1-1.1-0.7-2.2-1.9-2.5
		c-0.8-0.2-1.6-0.2-2.4-0.1c-2.8,0.3-5.6,0.6-8.3,1.1c-14.7,3.2-27.8,9.9-39.6,19.1c-7.6,5.9-14.2,12.9-20.4,20.3
		c-8,9.5-15.6,19.3-21.1,30.5c-0.1,0.2-0.4,0.3-0.6,0.4c-0.2-0.2-0.3-0.4-0.4-0.6c-4.3-8.7-9.9-16.6-16-24.2
		c-7.4-9.2-15-18.1-24.3-25.5c-12.1-9.7-25.5-16.8-40.7-20c-3.3-0.7-6.6-0.9-10-1.1c-1.7-0.1-2.6,1.1-2.5,2.5c0.1,1.3,1,2.1,2.6,2.2
		c1.4,0.1,2.9,0.1,4.3,0.3c8.5,1.1,16.5,3.9,24.1,7.6c0.5,0.3,1.1,0.6,1.6,0.9c-2.1,0.4-4,0.4-6,0.3c-7.8-0.4-15.6-1.1-23.1-3.8
		c-0.4-0.2-0.9-0.3-1.4-0.3c-1,0-1.7,0.5-2,1.4c-0.4,1-0.2,1.9,0.6,2.6c0.5,0.4,1.1,0.7,1.7,0.9c2.4,0.7,4.9,1.5,7.4,2
		c8.3,1.7,16.6,2.1,25.1,2c2.4,0,5.1-0.3,7.3,0.5c2.3,0.8,4.2,2.8,6.3,4.3c0.3,0.2,0.5,0.6,1.1,1.3c-1.1,0-1.7,0-2.3,0
		c-9.4-0.7-18.8-1.4-28.2-2.1c-1.8-0.1-3.5-0.5-5.2-0.7c-1.6-0.1-2.6,0.6-2.8,1.9c-0.2,1.4,0.5,2.3,2.1,2.7c0.4,0.1,0.8,0.1,1.2,0.2
		c5,0.6,10,1.3,15,1.7c7.4,0.5,14.9,1,22.3,0.9c2.9,0,4.9,0.5,6.7,2.6c1.4,1.6,2.9,3.1,4.8,4.9c-1.3,0-1.9,0.1-2.5,0
		c-7.2-0.7-14.3-1.5-21.5-2.2c-2.8-0.3-5.5-0.8-8.3-1.1c-1.5-0.2-2.6,0.7-2.8,2c-0.2,1.3,0.7,2.3,2.2,2.7c0.3,0.1,0.6,0.1,0.9,0.1
		c11.6,1.6,23.3,3.1,35.1,3.6c0.5,0,1.3,0.1,1.6,0.4c1.9,2.1,3.7,4.3,5.8,6.8c-0.9,0-1.3,0-1.7,0c-7.1-0.9-14.1-1.7-21.2-2.6
		c-2.1-0.3-4.3-0.6-6.4-0.9c-1-0.1-2,0.3-2.3,1.3c-0.2,0.8-0.1,1.8,0.3,2.4c0.3,0.5,1.2,0.8,1.8,0.9c2.4,0.4,4.7,0.8,7.1,1.1
		c7.8,0.9,15.6,1.9,23.4,2.6c2.2,0.2,3.8,0.8,4.8,2.7c0.8,1.5,2.2,2.6,2.7,4.6c-1-0.1-1.8-0.1-2.6-0.3c-5.3-0.9-10.5-1.9-15.8-2.9
		c-0.9-0.2-1.7-0.3-2.6-0.3c-1.1,0-1.8,0.7-2,1.8c-0.3,1.1,0.2,2.1,1.2,2.6c0.5,0.2,1.1,0.3,1.6,0.4c7.4,1.5,14.9,3.2,22.5,3.6
		c0.6,0,1.4,0.5,1.7,1c1.5,2.5,2.8,5.2,4.2,7.8c-0.1,0.1-0.2,0.3-0.3,0.4c-1.1-0.3-2.1-0.6-3.1-0.9c-10.9-3.5-21.9-6.6-33.1-8.7
		c-13.7-2.5-27.4-3.6-41.3-1.7c-14,1.9-27,7.3-39.8,12.9c-1.4,0.6-1.8,2-1.3,3.2c0.5,1.1,1.7,1.6,3,1.2c1.4-0.4,2.7-1.1,4-1.6
		c6.6-2.5,13.1-5.1,19.7-7.5c2.7-1,5.6-1.5,8.5-2.3c-0.3,0.7-0.8,1-1.3,1.3c-7,3.7-14,7.4-21,11.1c-1.7,0.9-2.2,1.8-1.7,3.2
		c0.6,1.4,1.8,1.9,3.6,1.2c1.3-0.5,2.6-1.1,3.9-1.8c7.9-4.3,15.9-8.6,23.8-13c7.4-4.1,7.3-4.1,15.8-3.9c1.1,0,2.3,0.1,3.4,0.1
		c0,0.2,0.1,0.4,0.1,0.6c-2.2,1.1-4.4,2.2-6.6,3.3c-6.1,2.9-12.3,5.9-18.4,8.7c-1.4,0.7-3,1.1-4.5,1.7c-1.5,0.6-2.1,1.6-1.7,2.9
		c0.4,1.3,1.5,1.9,3.1,1.5c0.6-0.1,1.2-0.3,1.8-0.6c1.8-0.7,3.6-1.4,5.3-2.2c9.6-4.7,19.2-9.5,28.8-14.2c0.8-0.4,1.7-0.9,2.4-0.8
		c3.5,0.5,6.9,1.1,10.4,1.8c0.1,0,0.1,0.2,0.2,0.4c-0.7,0.4-1.4,0.8-2.1,1.1c-7.1,3.2-14.1,6.4-21.2,9.6c-0.6,0.3-1.2,0.5-1.7,0.8
		c-1,0.7-1.3,1.7-0.9,2.7c0.4,1.1,1.5,1.7,2.7,1.4c0.6-0.1,1.2-0.4,1.8-0.6c9.4-4.4,18.8-8.8,28.3-13.1c0.6-0.3,1.4-0.5,2-0.4
		c1.6,0.3,3.1,0.7,4.9,1.2c-0.7,0.5-1.1,0.9-1.6,1.1c-5,2.4-10.1,4.9-15.1,7.3c-1.5,0.7-2.2,1.6-1.8,2.9c0.4,1.4,1.6,2.1,3.2,1.6
		c1.5-0.4,3-1,4.4-1.7c5.4-2.8,10.8-5.6,16.1-8.4c1.1-0.6,2-0.8,3.1-0.4c3.1,1,6.3,1.9,9.4,2.9c0,0.1,0.1,0.3,0.1,0.4
		c-0.7,0.3-1.4,0.7-2.1,1c-10.2,4.4-19.8,9.8-28.6,16.4c-9,6.8-17,14.6-23,24.2c-9.3,14.8-16,30.8-20.7,47.5
		c-0.2,0.6-0.3,1.3-0.3,1.9c0,1.1,0.6,1.8,1.6,2.1c1.1,0.3,2.1-0.1,2.6-1.1c0.3-0.6,0.4-1.2,0.6-1.8c3.2-11.4,7.4-22.5,12.7-33.1
		c0.4-0.8,0.8-1.5,1.2-2.2c0.3,0.5,0.4,0.9,0.3,1.3c-1.1,7.4-2.3,14.9-5.3,21.8c-0.6,1.5-0.2,2.7,0.9,3.3c1.3,0.6,2.6,0.1,3.3-1.4
		c0.6-1.3,1.1-2.6,1.6-4c2.7-8.1,3.9-16.5,4.7-24.9c0.7-7.7,0.6-7.7,5.4-13.8c0.6-0.7,1.1-1.4,1.7-2c0.7-0.8,1.4-1.6,2.6-2.8
		c0,1,0,1.4,0,1.7c-1.1,8.4-2.2,16.8-3.3,25.2c-0.1,0.5-0.2,0.9-0.2,1.4c0,1.2,0.6,2,1.8,2.3c1.1,0.3,1.9-0.2,2.5-1
		c0.3-0.5,0.5-1.2,0.7-1.8c0.4-1.8,0.7-3.6,1-5.4c1-8.6,2-17.1,3-25.7c0.1-0.8,0.1-1.8,0.6-2.3c2.3-2.2,4.8-4.2,7.6-6.2
		c0.1,0.7,0.1,1,0.1,1.3c-1,8.8-2,17.6-4.8,26.1c-0.5,1.5,0,2.8,1.2,3.2c1.3,0.5,2.6,0,3.3-1.6c0.4-1,0.8-2.1,1.1-3.2
		c2.2-9.2,3.7-18.5,4.3-27.9c0-0.6,0.2-1.6,0.7-1.9c2.5-1.7,5.1-3.2,7.9-5c0,0.8,0.1,1.2,0,1.6c-0.8,5.2-1.6,10.4-2.6,15.6
		c-0.5,2.8-1.3,5.6-1.9,8.4c-0.3,1.3,0.4,2.5,1.6,2.9c1.2,0.4,2.4-0.2,2.9-1.5c0.3-0.6,0.4-1.2,0.6-1.8c0.7-3,1.4-6.1,1.9-9.1
		c0.9-5.4,1.8-10.9,2.5-16.4c0.2-1.8,0.9-2.9,2.6-3.5c2.4-0.9,4.7-2.1,7-3.1c1.3-0.6,2.6-1,4.2-1.6c0,1.1,0.1,2,0,2.9
		c-0.7,9.3-1.3,18.7-2,28c-0.8,10.4-1.5,20.7-2.3,31.1c-0.5,7.2-1,14.4-1.6,21.5c-0.7,10-1.5,20.1-2.2,30.1
		c-0.7,9.7-1.4,19.5-2.1,29.2c-0.8,10.4-1.5,20.7-2.3,31.1c-0.6,7.7-1.1,15.3-1.7,23c-0.3,4-0.6,8-0.8,12c-0.1,2.1,0.6,2.9,2.8,3
		c0.4,0,0.8,0,1.2,0c9.2,0,18.4,0,27.6,0C229.1,452.6,229.5,452.7,229.9,452.6z M214.7,273c0.1,0,0.3,0,0.4,0
		c0.5,6.5,1,13.1,1.5,19.8c-1.2,0-2.2,0-3.3,0C213.8,286.1,214.2,279.5,214.7,273z M212.9,297.9c1.4,0,2.6,0,4.1,0
		c0.3,3.5,0.5,7,0.8,10.6c-2,0-3.7,0-5.6,0C212.4,304.9,212.6,301.5,212.9,297.9z M211.8,313.5c2.1,0,4.1,0,6.3,0
		c0.3,3.4,0.5,6.8,0.8,10.5c-2.6,0.4-5,0.1-7.7,0.2C211,320.5,211.6,317.1,211.8,313.5z M210.7,329c2.9,0,5.6,0,8.6,0
		c0.3,3.5,0.5,7,0.8,10.7c-3.6,0-6.8,0-10.1,0C210.1,336,210.4,332.6,210.7,329z M209.5,344.6c3.7,0,7.1,0,10.9,0
		c0.3,3.5,0.5,6.9,0.8,10.2c-1.7,0.6-8.9,0.7-12.4,0.2C209,351.7,209.2,348.2,209.5,344.6z M208.4,360.2c4.4,0,8.6,0,13.1,0
		c0.3,3.5,0.5,6.9,0.8,10.3c-1.8,0.6-11.6,0.7-14.6,0.2C207.9,367.2,208.1,363.8,208.4,360.2z M207.2,376.1
		c1.8-0.5,11.6-0.7,15.5-0.2c0.3,3.5,0.5,6.9,0.7,10.4c-5.7,0-11.2,0-16.9,0C206.7,382.9,207,379.5,207.2,376.1z M206,391.7
		c1.8-0.5,14.6-0.7,17.8-0.2c0.3,3.4,0.5,6.9,0.8,10.5c-6.4,0-12.6,0-19.1,0C205.2,398.5,206.1,395.1,206,391.7z M205,407.1
		c6.7,0,13.2,0,19.9,0c0.1,0.6,0.1,1,0.2,1.4c0.2,3,0.4,5.9,0.6,9.2c-7.2,0.1-14.2,0-21.5,0.1C204.4,414,204.7,410.6,205,407.1z
		 M203.8,422.6c7.4,0,14.7,0,22.2,0c0.3,3.5,0.5,6.9,0.8,10.3c-1.8,0.5-20.6,0.6-23.8,0.1C203.3,429.5,203.6,426.1,203.8,422.6z
		 M202.2,447.7c-0.2-3.1,0.4-6.2,0.5-9.5c8.2,0,16.3,0,24.5,0c0.2,3.2,0.5,6.3,0.7,9.5C219.3,447.7,210.9,447.7,202.2,447.7z"/>
	<path d="M848.9,609.4c4.3,3.6,9.3,6,14.6,7.5c14.4,4,29,4.5,43.7,1.6c6.5-1.3,12.6-3.5,18.2-7.1c9.8-6.3,14.6-15.4,14.4-27
		c-0.2-7.6-3.4-13.5-9.9-17.5c-1.8-1.1-3.7-2-5.6-2.8c-5.1-2.1-10.4-3.3-15.8-3.8c-9.1-1-18.3-1.6-27.5-2.5c-4.9-0.5-9.8-1.2-14.7-2
		c-3.2-0.5-6.2-1.6-8.9-3.4c-3-2-4.6-4.8-4.5-8.5c0.1-4.9,2.4-8.7,6.3-11.6c3-2.3,6.3-3.7,9.9-4.8c8.2-2.4,16.5-2.8,24.9-2.2
		c5.5,0.4,10.9,1.5,16.1,3.5c8.2,3.3,14.2,8.8,16.8,17.5c0.1,0.2,0.3,0.4,0.5,0.7c3.4-1.3,6.8-2.7,10.4-4.1
		c-1.7-9-5.9-16.1-13.2-21.2c-3.8-2.7-8.1-4.6-12.6-5.7c-14.3-3.7-28.6-3.9-43-0.7c-7.2,1.6-14.1,4.3-20,8.9
		c-5.9,4.6-9.5,10.5-10.3,18c-1,9.7,2.3,17.4,11.6,21.8c1.4,0.7,2.9,1.3,4.4,1.8c5.5,1.9,11.3,2.9,17.1,3.3c8,0.6,16,0.9,23.9,1.6
		c5.2,0.4,10.3,1.1,15.5,1.9c3.3,0.5,6.5,1.6,9.4,3.4c3.8,2.4,5.8,5.9,5.6,10.4c-0.2,5.8-2.9,10.2-7.6,13.5c-3.6,2.6-7.7,4.2-12,5.2
		c-10.1,2.5-20.4,2.7-30.7,1.3c-5.2-0.7-10.2-2.1-14.8-4.6c-5.9-3.2-10-7.9-12.1-14.3c-0.1-0.4-0.4-0.8-0.6-1.4
		c-3.6,1.4-7,2.8-10.5,4.2C839.5,598.2,843,604.5,848.9,609.4z"/>
	<path d="M918.4,747.2c1.4-0.7,2.5-1.2,3.5-1.8c9.5-5.4,15.6-13.1,16.2-24.4c0.4-8-1.9-15-8-20.5c-2.9-2.7-6.4-4.5-10.1-5.9
		c-6.4-2.4-13-3.2-19.8-3.3c-19.6-0.1-39.2,0-58.8,0c-0.6,0-1.2,0.1-1.8,0.2c0,33.3,0,66.5,0,99.7c4.1,0,8,0,12.3,0
		c0-13.5,0-26.9,0-40.5c17.4-0.1,34.6-0.2,51.9-0.3c0.3,0.5,0.8,1.3,1.2,2c7.1,12.3,22.3,38.9,22.3,38.9l16.3-0.1
		C943.7,791.4,926.8,761.9,918.4,747.2z M909.8,738c-2.9,1.1-5.9,1.6-8.9,1.6c-15.7,0-31.3,0-47,0c-0.5,0-1.1,0-1.8-0.1
		c0-12.2,0-24.1,0-36.1c0.6-0.1,1.2-0.2,1.7-0.2c14.1-0.1,28.3-0.2,42.4-0.3c4.1,0,8.2,0.2,12.1,1.2c1.9,0.5,3.8,1.1,5.7,2
		c7.7,3.6,11,11.3,8.3,19.4C920.2,731.8,915.8,735.7,909.8,738z"/>
	<path d="M306.3,779.3c-5.4,0-10.7,0-16,0c-5.3,0-10.6,0-15.8,0c-5.4,0-10.7,0-16.1,0c-5.3,0-10.6,0-15.8,0
		c-5.3,0-10.5,0.2-15.9-0.1c0-11,0-21.8,0-32.8c21.5,0,42.9,0,64.4,0c0-4.3,0-8.3,0-12.5c-3.2,0-6.2,0-9.3,0c-3.1,0-6.2,0-9.4,0
		c-3,0-6.1,0-9.1,0s-6.1,0-9.1,0c-3,0-6.1,0-9.1,0c-3.1,0-6.2,0-9.4,0c-3,0-6,0-9-0.1c-0.5-4.7-0.3-28.3,0.3-30.2
		c25.4,0,76.3,0,76.3,0l-0.1-12.1c0,0-59,0-88.6,0c0,33.3,0,66.5,0,99.8c30.6,0,61.1,0,91.7,0C306.3,787.3,306.3,783.4,306.3,779.3z
		"/>
	<path d="M503.8,702.3c-8.8-7.3-19-10.9-30.3-11.1c-15.7-0.3-31.3,0-47,0c-2.1,0-4.1,0-6.3,0c0,33.6,0,66.7,0,100.1c1,0,1.9,0,2.8,0
		c15.4,0,30.9,0,46.3,0c3,0,6.1-0.2,9.1-0.7c17.8-2.9,30.2-12.7,37.1-29.3c4.1-9.9,5.2-20.3,3.7-30.8
		C517.6,719.2,512.7,709.7,503.8,702.3z M502.5,757.9c-5.4,11.6-14.7,18.2-27.1,20.7c-5,1-10,0.9-15.1,0.9c-8.8,0-17.6,0.1-26.4,0.1
		c-0.4,0-0.8-0.1-1.4-0.1c0-25.4,0-50.6,0-75.9c0.6-0.1,1.1-0.2,1.6-0.2c10.6-0.1,21.3-0.2,31.9-0.3c5.7,0,11.3,0.7,16.8,2.6
		c14.5,4.9,23.2,16.7,23.5,32C506.5,744.6,505.5,751.4,502.5,757.9z"/>
	<path d="M698.7,779.3c-4.4,0-8.8,0-13.2,0c-4.5,0-9,0-13.4,0c-4.4,0-8.8,0-13.2,0c-4.4,0-8.7,0.1-13.1-0.1c0-11.1,0-21.9,0-32.9
		c21.5,0,64.2,0,64.2,0l-0.1-12.5c0,0-10.7,0-16,0c-5.4,0-10.7,0-16.1,0s-10.7,0-16.1,0c-5.3,0-10.6,0.1-15.9-0.1
		c-0.5-4.9-0.3-28.3,0.3-30.2c25.3,0,50.8,0,76.3,0c0-4.2,0-8.1,0-12.1c-29.7,0-59.1,0-88.6,0c-0.5,2.3-0.5,97.9,0,99.8
		c30.4,0,60.8,0,91.4,0c0-4,0-7.9,0-12c-4.5,0-8.9,0-13.3,0C707.5,779.3,703.1,779.3,698.7,779.3z"/>
	<path d="M6.8,590.2c4.2,13.6,12.8,23.2,26.6,27.3c13.1,3.9,26.3,3.7,39.2-0.8c11.4-3.9,19.1-11.7,22.7-23.3c1.4-4.4,2-8.9,2-13.5
		c0-20.3,0-40.6,0-61c0-0.8-0.1-1.6-0.1-2.5c-4.1,0-8.1,0-12.3,0c0,1.1,0,2,0,2.9c0,18.8,0,37.6,0,56.4c0,2.6-0.1,5.3-0.5,7.9
		c-1.6,11.3-7.7,18.9-18.9,22c-8.5,2.3-17.1,2.5-25.6,0.3c-9.8-2.5-16.7-8.5-20.5-17.9c-1.2-2.9-1.8-6.1-2.6-9.2
		c-0.2-0.6-0.3-1.2-0.5-1.9c-3.9,1.2-7.6,2.3-11.3,3.5c0,0.7-0.1,1.3,0,1.8C5.5,585,6,587.7,6.8,590.2z"/>
	<path d="M428,516.6c0,33.3,0,99.7,0,99.7h84.1l0-10.5l0-1.4c0,0-5.5,0-8.1,0c-2.6,0-5.3,0-7.9,0c-2.7,0-5.4,0-8.2,0
		c-2.6,0-5.3,0-7.9,0s-5.3,0-7.9,0s-5.3,0-7.9,0c-2.7,0-8.2,0-8.2,0l-7.9,0l-8,0c0,0,0-58.6,0-87.8C436,516.6,432,516.6,428,516.6z"
		/>
	<path d="M637.5,516.6c0,33.4,0,66.5,0,99.7c28,0,55.9,0,83.8,0c0-4,0-7.9,0-11.9c-23.9,0-47.6,0-71.6,0c0-29.4,0-58.5,0-87.8
		C645.5,516.6,641.6,516.6,637.5,516.6z"/>
	<path d="M412,976.2c5.7-2.6,8.8-7,9-13.3c0.2-6.5-2.7-11.2-8.4-14.2c-3.6-1.8-7.4-2.5-11.4-2.5c-10.6,0-21.1,0-31.7,0
		c-0.7,0-1.4,0.1-2.1,0.2c0,16.5,0,32.9,0,49.3c3.2,0,6.3,0,9.6,0c0-5.8,0-11.3,0-17.3c1,0,1.8,0,2.5,0c4.9,0,9.8,0.1,14.6,0
		c1.6,0,2.6,0.5,3.7,1.7c4,4.8,8.2,9.6,12.3,14.5c0.8,0.9,1.6,1.4,2.8,1.4c2.8-0.1,5.6,0,8.4,0c0.5,0,1-0.1,1.9-0.2
		c-5.3-6.1-10.4-11.9-15.5-17.8C409.3,977.3,410.7,976.8,412,976.2z M401.3,969.9c-7.7,0.1-15.5,0.1-23.2,0.1
		c-0.3,0-0.6-0.1-1.1-0.2c0-4.8,0-9.5,0-14.6c0.8,0,1.5-0.1,2.2-0.1c7.2,0,14.4-0.1,21.5,0c2,0,4,0.3,5.9,1c3,1,4.4,3.2,4.4,6.4
		c0,3.2-1.4,5.5-4.3,6.5C405,969.4,403.1,969.8,401.3,969.9z"/>
	<path d="M649.2,948.4c-3.4-1.5-7-2-10.8-2c-10.3,0-20.6,0-31,0c-0.8,0-1.5,0.1-2.5,0.1c0,16.5,0,49.5,0,49.5h9.8c0,0,0-11.1,0-16.7
		c1.1,0,1.9,0,2.8,0c7.7,0,15.4,0,23-0.1c3.1,0,6-0.8,8.8-2.1c6.1-2.9,9.1-7.8,9-14.6C658.4,955.9,655.3,951.1,649.2,948.4z
		 M644.1,969.6c-1.7,0.6-3.6,1-5.4,1c-7.6,0.1-15.2,0-22.8,0c-0.3,0-0.6-0.1-1.1-0.2c0-5.2,0-10.2,0-15.3c0.7,0,1.3-0.1,2-0.1
		c7.1,0,14.2-0.1,21.3,0c2,0,4,0.3,5.8,1c3.1,1,4.5,3.3,4.5,6.6C648.6,966.1,647.2,968.5,644.1,969.6z"/>
	<path d="M254.5,616.2c4.1,0,8.1,0,12.1,0c0-33.3,0-66.5,0-99.7c-4.1,0-8,0-12.1,0C254.5,549.9,254.5,583.1,254.5,616.2z"/>
</g>
</svg>
